<?xml version="1.0" standalone="no"?>
<!DOCTYPE svg PUBLIC "-//W3C//DTD SVG 20010904//EN"
 "http://www.w3.org/TR/2001/REC-SVG-20010904/DTD/svg10.dtd">
<svg version="1.0" xmlns="http://www.w3.org/2000/svg"
 width="1120.000000pt" height="1120.000000pt" viewBox="0 0 1120.000000 1120.000000"
 preserveAspectRatio="xMidYMid meet">
<metadata>
Created by potrace 1.14, written by Peter Selinger 2001-2017
</metadata>
<g transform="translate(0.000000,1120.000000) scale(0.100000,-0.100000)"
fill="#000000" stroke="none">
<path d="M9700 8373 c-39 -97 -86 -185 -133 -249 -62 -85 -220 -247 -341 -351
-381 -329 -680 -673 -813 -938 -83 -163 -143 -381 -168 -604 -8 -68 -16 -126
-19 -129 -28 -28 -24 131 9 384 28 212 33 401 12 482 -37 142 -152 203 -292
156 -36 -13 -69 -37 -129 -98 -45 -45 -98 -102 -119 -128 -21 -27 -42 -48 -47
-48 -4 0 -8 47 -8 105 0 90 -3 111 -23 152 -34 66 -79 88 -184 88 -69 0 -86
-4 -127 -28 -67 -39 -115 -91 -133 -146 -10 -32 -17 -105 -20 -236 -4 -104
-10 -212 -16 -239 -11 -58 -56 -123 -137 -198 -70 -64 -138 -102 -223 -124
-154 -40 -278 23 -308 156 -14 60 -14 62 7 51 14 -7 37 -2 93 23 95 41 175
100 225 166 21 28 56 75 78 103 98 131 131 278 84 367 -63 117 -245 138 -426
49 -102 -50 -209 -152 -305 -289 -56 -82 -147 -245 -147 -265 0 -19 -106 -159
-152 -201 -127 -115 -301 -169 -431 -133 -64 17 -137 96 -137 146 0 18 51 44
111 57 43 9 145 83 205 149 106 116 200 282 210 373 17 141 -69 232 -226 242
-154 9 -264 -35 -395 -160 -85 -80 -159 -172 -212 -263 -32 -54 -94 -199 -92
-212 2 -9 -5 -30 -29 -83 -38 -86 -46 -164 -26 -273 19 -107 23 -120 32 -126
12 -9 54 -71 48 -71 -3 0 2 -9 11 -20 10 -11 24 -20 32 -20 51 0 -29 -14 -255
-46 -359 -49 -477 -73 -807 -164 -203 -56 -330 -102 -457 -165 -47 -23 -96
-46 -109 -50 -24 -7 -23 -6 8 36 18 24 57 81 87 126 58 88 56 88 119 52 45
-26 164 -25 181 2 3 5 13 9 22 9 30 1 111 68 133 111 11 23 32 53 45 68 64 69
115 210 163 451 17 86 40 182 51 215 28 82 82 186 94 182 6 -2 14 -21 19 -43
5 -21 11 -46 14 -54 8 -19 10 -28 18 -69 3 -19 8 -37 10 -41 2 -4 7 -22 10
-41 3 -19 11 -39 18 -44 7 -6 13 -17 15 -25 2 -8 8 -16 13 -18 5 -2 9 -9 9
-15 0 -7 9 -18 21 -25 11 -7 18 -19 15 -27 -3 -9 0 -12 8 -9 7 3 20 -2 29 -10
9 -9 21 -16 27 -16 6 0 9 -3 7 -7 -3 -5 6 -8 19 -8 13 0 24 4 24 8 0 5 6 5 13
0 15 -9 87 -11 81 -1 -2 3 12 12 31 18 63 21 187 131 220 196 4 7 -6 24 -21
39 -26 26 -27 30 -20 103 25 306 20 348 -49 418 -63 62 -138 89 -255 89 -121
0 -162 -19 -315 -145 -60 -49 -113 -90 -117 -90 -4 0 -10 11 -14 24 -4 16 4
38 25 72 41 68 55 130 48 222 -8 119 -44 189 -114 218 -40 17 -112 18 -166 2
-98 -29 -270 -243 -322 -398 -27 -81 -9 -272 33 -347 6 -12 14 -32 16 -45 3
-13 5 -25 6 -28 1 -3 3 -9 5 -15 1 -5 3 -14 5 -20 4 -18 1 -90 -5 -120 -3 -17
-8 -57 -11 -90 -2 -33 -7 -80 -10 -105 -8 -60 -11 -103 -13 -177 -1 -57 -4
-65 -46 -115 -25 -29 -98 -125 -164 -213 -118 -159 -166 -214 -177 -203 -15
16 154 779 227 1026 62 207 43 295 -73 351 l-61 29 53 48 c29 27 64 67 78 89
26 39 28 44 31 65 0 5 18 18 39 27 37 18 37 19 40 83 7 151 -34 373 -90 487
-53 108 -162 189 -309 229 -96 26 -285 24 -421 -4 -310 -64 -540 -191 -832
-457 -222 -203 -422 -484 -706 -990 -114 -203 -241 -479 -266 -578 -3 -15 -10
-27 -14 -27 -5 0 -7 -11 -5 -25 1 -16 -3 -25 -12 -25 -8 0 -11 -5 -8 -10 4 -6
1 -18 -6 -26 -6 -8 -9 -17 -6 -21 4 -3 2 -12 -4 -20 -6 -7 -9 -13 -6 -13 3 0
-3 -25 -13 -56 -11 -31 -18 -60 -15 -64 3 -5 0 -10 -5 -12 -6 -2 -11 -24 -13
-51 -1 -26 -5 -47 -8 -47 -12 0 -17 -40 -7 -47 7 -4 4 -11 -7 -20 -12 -8 -14
-13 -6 -13 9 0 11 -6 6 -17 -12 -29 -12 -77 -1 -85 7 -5 3 -8 -8 -8 -14 0 -16
-3 -7 -13 8 -10 7 -17 -2 -27 -9 -10 -9 -11 1 -6 15 9 15 1 1 -25 -19 -36 -19
-59 -1 -59 12 0 13 -3 5 -8 -7 -4 -11 -18 -8 -30 2 -12 0 -24 -5 -27 -13 -8
-9 -65 4 -65 7 0 8 -3 1 -8 -14 -9 -13 -61 0 -59 6 1 9 -10 8 -25 -1 -19 3
-28 13 -28 8 0 14 -5 14 -10 0 -6 -11 -8 -25 -6 -21 4 -24 2 -16 -12 6 -9 21
-29 35 -44 30 -31 32 -38 11 -38 -9 0 -15 9 -15 22 0 17 -3 19 -12 10 -9 -9
-8 -16 4 -29 16 -19 33 -62 30 -75 -3 -13 16 -9 21 5 2 6 2 2 0 -10 -2 -15 5
-30 22 -45 16 -14 22 -25 15 -33 -11 -13 -7 -51 6 -48 13 2 17 23 5 23 -6 0
-11 5 -11 10 0 6 7 10 15 10 8 0 15 -7 15 -15 0 -7 8 -19 18 -25 15 -10 15
-10 -3 -6 -15 4 -23 -1 -32 -20 -12 -25 -12 -25 13 -9 24 15 25 15 42 -15 9
-16 22 -28 29 -25 21 8 26 -15 7 -36 -16 -17 -16 -22 -4 -29 8 -6 20 -10 25
-10 6 0 3 5 -5 10 -10 6 -11 10 -3 10 7 0 18 -9 25 -19 6 -10 18 -17 25 -14 7
3 13 1 13 -5 0 -6 -5 -12 -12 -14 -7 -3 -5 -7 6 -11 10 -4 15 -3 11 3 -10 17
5 11 27 -10 14 -13 17 -20 8 -20 -7 0 -11 -3 -7 -6 3 -3 12 -2 19 2 19 12 50
16 43 5 -3 -5 -1 -12 5 -16 5 -3 10 -1 10 6 0 7 7 4 15 -7 14 -19 14 -19 15 1
1 18 2 18 13 3 15 -19 47 -26 66 -14 9 6 18 3 27 -8 14 -19 38 -13 28 7 -3 7
4 1 16 -13 12 -14 19 -20 16 -13 -7 13 75 11 108 -2 15 -7 17 -5 11 5 -6 10
-4 12 8 7 10 -3 17 -2 17 4 0 6 5 7 11 3 6 -3 8 -16 5 -28 -5 -19 -4 -20 8 -3
9 11 20 15 31 11 15 -6 16 -4 6 17 -11 21 -8 20 15 -6 25 -27 27 -28 22 -7 -7
25 7 29 31 8 9 -7 27 -17 41 -21 20 -7 23 -5 15 7 -6 7 -2 5 8 -5 9 -11 17
-15 17 -11 0 5 5 1 11 -9 8 -14 14 -15 24 -7 11 9 14 7 12 -9 -1 -12 -28 -56
-60 -99 -92 -121 -229 -328 -282 -427 -62 -114 -126 -245 -119 -245 4 0 -17
-42 -53 -103 -8 -14 -9 -25 -2 -33 5 -7 6 -14 1 -16 -4 -1 -18 -23 -31 -48
-22 -44 -22 -44 -2 -22 33 34 35 27 8 -22 -14 -25 -19 -42 -12 -40 7 3 15 -2
18 -10 4 -9 3 -15 -1 -15 -26 4 -34 -1 -22 -16 10 -12 10 -18 -1 -32 -13 -17
-13 -17 6 -3 11 8 23 20 27 25 5 6 8 6 8 -2 0 -23 -12 -43 -24 -36 -6 3 0 -6
13 -20 14 -15 19 -27 13 -27 -18 0 -14 -22 8 -50 16 -21 20 -22 20 -7 0 10 5
15 10 12 6 -3 10 -15 10 -26 0 -10 5 -19 11 -19 5 0 7 4 4 10 -3 6 -3 16 2 23
5 8 9 2 13 -18 4 -21 12 -31 30 -35 24 -6 24 -6 3 -12 -12 -3 -27 -1 -34 6
-10 8 -10 7 0 -6 7 -10 17 -16 21 -13 4 3 11 -2 14 -10 3 -9 -1 -18 -9 -21 -8
-4 -12 -11 -8 -17 4 -6 0 -8 -9 -4 -13 4 -14 0 -8 -30 6 -25 5 -32 -2 -25 -7
7 -14 7 -23 -1 -10 -10 -10 -17 1 -38 12 -23 11 -29 -1 -39 -8 -7 -15 -19 -15
-27 0 -7 -6 -16 -14 -19 -8 -3 -12 -12 -9 -20 3 -8 9 -11 14 -8 5 3 6 10 3 16
-4 6 -1 9 7 6 19 -6 17 -29 -4 -42 -14 -8 -20 -8 -28 4 -9 13 -10 13 -6 -2 3
-9 3 -19 -1 -21 -4 -2 -2 -2 5 -1 7 2 15 -1 18 -6 4 -6 1 -10 -5 -10 -6 0 -8
-5 -4 -11 9 -15 15 -87 6 -74 -9 14 -34 13 -39 -2 -2 -6 1 -14 6 -18 7 -4 8 1
4 12 -5 17 -5 17 12 1 17 -15 17 -18 1 -33 -17 -18 -22 -30 -7 -21 5 3 14 -1
21 -9 10 -12 10 -15 -3 -15 -8 0 -18 -7 -21 -16 -5 -14 -9 -14 -23 -3 -15 13
-15 12 -3 -11 8 -16 15 -20 18 -12 3 9 7 10 17 2 11 -9 12 -7 8 9 -7 26 5 27
23 4 11 -14 13 -15 9 -2 -7 20 20 45 30 28 4 -6 1 -16 -6 -21 -11 -7 -11 -11
-1 -15 6 -2 9 -9 6 -15 -4 -6 0 -14 7 -19 12 -8 12 -10 0 -18 -10 -7 -7 -9 12
-8 26 2 39 27 14 27 -7 0 -14 11 -15 25 -2 23 -1 24 18 8 10 -9 17 -20 14 -25
-8 -12 10 -9 26 5 11 9 11 8 0 -7 -14 -17 -13 -18 7 -12 12 4 24 2 28 -4 3 -6
11 -8 16 -5 5 3 6 -1 3 -10 -5 -12 -9 -13 -21 -3 -18 14 -55 19 -46 5 3 -5 1
-12 -5 -16 -16 -10 -3 -51 14 -44 8 3 14 9 14 15 0 5 -4 6 -10 3 -6 -3 -7 1
-4 9 3 9 13 16 21 16 8 0 11 -5 7 -12 -4 -6 -3 -8 3 -5 6 4 16 0 23 -8 9 -10
9 -15 1 -15 -6 0 -12 1 -14 3 -5 3 -37 -30 -37 -39 0 -5 5 -3 12 4 9 9 15 7
25 -6 11 -13 13 -13 10 -2 -2 8 6 25 19 36 12 12 20 25 16 29 -4 4 3 2 16 -4
23 -12 22 -34 -1 -25 -8 3 -13 -4 -13 -16 0 -11 6 -22 13 -24 7 -3 10 1 6 11
-5 12 -1 14 18 8 13 -3 19 -3 13 2 -13 10 -14 43 -2 43 5 0 7 4 3 9 -3 6 3 14
13 20 15 8 19 6 19 -7 0 -9 -7 -25 -16 -36 -15 -18 -15 -18 8 -11 18 5 22 4
16 -6 -5 -8 -5 -11 0 -7 4 4 16 3 26 -3 15 -7 17 -6 13 6 -3 8 -10 12 -15 9
-5 -3 -9 2 -9 10 0 9 9 16 20 16 14 0 18 -5 13 -17 -5 -14 -3 -16 7 -6 9 8 19
9 31 2 15 -8 17 -6 12 7 -6 15 -4 15 19 0 13 -9 28 -13 31 -9 4 3 7 1 7 -6 0
-7 -7 -11 -15 -8 -8 4 -17 1 -21 -6 -4 -7 -4 -9 1 -5 4 4 14 3 22 -3 9 -9 13
-8 13 0 0 9 6 9 22 1 22 -11 22 -10 4 4 -14 11 -15 16 -6 16 9 0 8 5 -6 16
-18 14 -18 15 5 8 20 -5 23 -3 18 10 -4 11 -3 15 4 10 6 -3 8 -16 5 -28 -4
-15 1 -26 14 -34 12 -7 20 -8 20 -2 0 5 -5 10 -11 10 -5 0 -7 5 -4 10 4 6 10
8 15 5 4 -3 10 0 12 7 2 6 10 8 17 4 8 -5 9 -12 2 -20 -7 -8 -5 -12 8 -12 9 0
18 8 18 18 1 10 -2 18 -8 18 -5 0 -9 8 -9 17 0 15 2 14 15 -3 8 -11 15 -14 15
-6 0 6 5 12 11 12 8 0 8 -4 0 -14 -17 -21 9 -39 28 -19 12 13 11 14 -8 8 -20
-6 -21 -5 -9 14 8 13 16 17 22 11 15 -15 27 -12 24 6 -2 11 4 18 17 19 11 1
27 4 35 6 9 2 14 -2 12 -11 -3 -11 0 -11 15 3 15 13 22 14 31 5 9 -9 12 -8 13
7 0 11 3 14 6 8 2 -7 9 -13 14 -13 6 0 8 4 4 9 -3 5 0 13 6 17 7 4 10 3 7 -2
-3 -5 -2 -18 3 -29 7 -19 8 -19 8 3 1 12 7 22 15 22 8 0 16 6 19 13 3 8 7 7
11 -4 6 -14 11 -14 46 4 22 10 40 25 40 33 0 13 12 18 33 15 4 0 7 5 7 11 0 8
7 5 15 -6 15 -20 15 -20 16 0 0 10 3 13 6 7 7 -20 34 -15 31 5 -2 12 5 18 25
20 15 2 27 8 27 13 0 6 10 5 22 -2 22 -12 22 -11 8 6 -14 17 -13 18 8 12 13
-3 21 -3 18 0 -3 3 4 14 16 24 15 14 24 16 34 8 9 -8 17 -4 29 14 14 22 32 32
74 42 8 2 17 9 21 16 4 6 12 9 16 6 10 -5 36 18 28 26 -3 2 2 7 11 11 9 3 13
2 10 -4 -10 -17 12 -11 26 7 12 15 12 16 -1 8 -13 -8 -13 -6 -1 8 10 13 18 14
32 6 11 -5 19 -6 18 -2 -4 21 2 34 12 27 15 -9 59 16 59 33 0 8 5 11 10 8 5
-3 10 -3 10 2 0 4 12 17 27 27 14 11 23 14 19 8 -4 -7 -2 -12 3 -12 6 0 11 7
11 16 0 12 7 15 25 12 17 -4 25 -1 25 9 0 10 6 13 16 9 9 -3 12 -2 9 5 -4 5 5
22 19 36 14 14 26 22 26 17 0 -5 5 -1 11 8 5 10 16 18 23 18 7 0 19 11 26 25
7 13 16 23 19 22 3 -1 16 8 28 20 13 13 21 23 19 23 -1 0 22 26 54 57 31 32
76 87 100 122 23 35 79 101 124 146 149 150 180 199 241 375 70 201 142 355
204 439 l25 33 18 -22 c18 -22 25 -56 11 -47 -5 3 -8 -5 -9 -16 -1 -36 -12
-111 -18 -129 -3 -10 -9 -26 -13 -35 -9 -24 -10 -83 -1 -83 4 0 0 -19 -8 -42
-8 -23 -15 -58 -15 -78 0 -19 0 -107 0 -195 -1 -191 4 -248 25 -280 9 -14 12
-25 6 -25 -11 0 -4 -11 38 -55 13 -14 27 -25 32 -25 6 0 10 -10 11 -22 0 -13
3 -17 6 -11 3 10 10 10 24 2 11 -5 27 -9 37 -7 9 1 23 -1 30 -6 7 -4 19 -3 27
4 8 6 19 9 25 5 5 -3 10 1 10 10 0 10 7 15 18 13 10 -2 16 2 14 10 -1 8 1 11
6 8 10 -6 79 49 195 156 86 80 127 105 127 78 0 -14 71 -80 86 -80 7 0 15 -6
18 -12 5 -10 7 -10 12 0 5 10 10 10 29 -2 23 -15 49 -16 62 -1 4 4 2 5 -6 0
-9 -5 -12 -4 -8 2 4 6 18 9 32 8 14 -2 25 1 25 6 0 6 8 9 18 7 9 -2 16 3 14
10 -1 6 3 12 9 12 13 0 80 46 74 51 -2 3 8 13 23 23 15 10 58 59 97 108 78
100 84 106 94 89 11 -17 4 -107 -9 -132 -7 -11 -9 -27 -6 -36 4 -8 2 -32 -3
-52 -6 -20 -12 -63 -15 -96 -3 -33 -8 -69 -12 -80 -4 -11 -61 -87 -127 -169
-195 -243 -317 -443 -369 -603 -12 -38 -27 -71 -32 -75 -6 -4 -8 -8 -3 -8 4 0
0 -16 -8 -36 -8 -20 -15 -47 -15 -60 0 -12 -7 -30 -16 -38 -14 -15 -11 -20 9
-17 4 1 3 -8 -3 -19 -9 -16 -8 -25 1 -38 11 -14 11 -15 -1 -5 -25 23 -31 14
-15 -23 8 -20 15 -45 15 -56 0 -10 7 -21 15 -24 8 -4 15 -13 15 -21 0 -8 -4
-11 -10 -8 -5 3 -10 -1 -10 -10 0 -9 5 -13 10 -10 6 3 15 3 21 -1 8 -4 7 -9
-2 -15 -11 -7 -11 -9 -1 -9 7 0 11 -4 8 -9 -8 -12 22 -23 37 -14 7 3 9 2 4 -2
-10 -11 42 -45 59 -38 21 8 5 25 -17 18 -10 -4 -19 -3 -19 2 0 15 38 13 50 -3
7 -7 16 -11 21 -8 5 3 9 -2 9 -11 0 -9 5 -13 10 -10 6 4 8 10 5 15 -7 11 29 7
37 -5 5 -6 15 -5 29 3 11 8 18 9 15 3 -5 -7 3 -7 23 0 16 6 32 17 35 25 3 8
10 14 16 14 6 0 8 -4 5 -10 -3 -5 -1 -10 4 -10 6 0 11 4 11 10 0 5 15 17 33
25 86 41 229 182 342 340 72 100 199 341 238 450 32 93 70 252 107 460 32 178
48 226 83 243 35 18 61 19 62 2 1 -8 6 -14 13 -13 6 2 9 -4 6 -12 -4 -8 1 -17
10 -21 9 -3 13 -10 10 -15 -3 -6 0 -16 6 -24 7 -8 10 -21 7 -29 -4 -10 -1 -13
9 -9 10 4 12 0 8 -11 -4 -10 1 -25 12 -37 16 -18 16 -19 1 -13 -24 9 -21 -9 4
-24 12 -8 18 -19 15 -27 -3 -8 -2 -14 2 -14 20 3 31 -2 26 -14 -3 -8 9 -21 30
-32 19 -10 33 -22 30 -26 -2 -4 0 -10 5 -13 5 -4 12 -2 15 2 3 5 15 8 28 6 34
-4 35 -5 13 -14 -17 -8 -16 -8 8 -7 15 1 27 4 27 7 0 3 9 6 20 7 11 1 18 -2
15 -7 -3 -6 1 -7 9 -4 9 3 16 10 16 15 0 5 8 9 18 9 9 0 28 9 42 20 14 11 29
20 33 20 8 0 43 30 106 90 14 14 57 60 95 103 44 50 73 74 79 68 5 -5 16 -7
25 -4 10 4 13 2 8 -5 -4 -6 2 -20 14 -32 18 -18 25 -40 21 -64 -1 -5 5 -6 13
-3 9 4 18 1 22 -5 4 -7 3 -8 -4 -4 -7 4 -12 3 -12 -2 0 -10 31 -23 60 -26 8 0
14 -7 12 -15 -3 -12 -1 -12 14 0 10 8 15 9 11 3 -4 -7 5 -11 24 -12 19 0 27 3
23 10 -4 7 -2 8 4 4 7 -4 18 -4 25 1 6 4 15 8 19 8 27 0 151 113 221 200 26
33 79 98 118 145 38 47 97 128 130 182 75 121 80 125 107 93 12 -14 20 -25 18
-25 -2 0 2 -19 9 -42 7 -25 9 -52 4 -64 -4 -12 -44 -70 -89 -129 -106 -140
-132 -196 -136 -300 -2 -79 11 -155 28 -155 4 0 7 -3 7 -7 -3 -21 2 -33 16
-33 8 0 15 -8 15 -17 0 -14 2 -15 9 -4 6 9 11 10 15 2 4 -6 12 -9 17 -6 5 4 9
3 9 -2 0 -4 14 -8 30 -9 17 -1 30 3 30 8 0 5 13 7 30 3 20 -4 37 -2 46 6 9 7
22 14 29 15 24 4 85 36 85 46 0 5 4 7 9 4 11 -7 96 84 190 205 11 14 34 52 50
84 38 73 83 121 138 146 84 39 88 33 79 -126 -2 -49 1 -79 12 -100 16 -32 42
-61 42 -48 1 4 9 -2 19 -15 13 -15 21 -18 24 -10 3 10 9 10 23 2 15 -9 26 -8
47 3 16 8 38 16 49 18 27 6 37 15 119 111 67 79 73 91 124 234 60 168 126 314
175 387 39 56 90 113 103 113 14 0 2 -162 -23 -340 -23 -159 -12 -397 21 -436
5 -6 6 -14 2 -17 -3 -4 -1 -7 5 -7 6 0 13 -9 17 -19 5 -16 69 -92 77 -92 15 1
47 -13 43 -18 -4 -8 49 -6 101 4 108 19 276 165 412 359 48 68 212 359 212
375 0 6 -12 14 -27 17 -24 6 -33 1 -71 -42 -24 -27 -76 -99 -116 -159 -83
-127 -125 -177 -180 -217 -49 -35 -80 -36 -102 -3 -23 36 -14 186 26 417 32
188 39 308 21 374 -39 145 -200 211 -343 141 -66 -33 -177 -145 -253 -257 -27
-40 -51 -68 -53 -61 -2 6 1 41 7 77 7 48 22 87 52 138 182 306 276 559 286
767 7 130 -4 167 -63 224 l-43 42 77 22 c198 56 426 204 612 397 119 124 194
231 273 389 132 266 167 443 167 850 0 256 -9 380 -46 630 -14 94 -34 233 -45
310 -25 171 -37 190 -69 108z m-20 -408 c-11 -72 -26 -152 -34 -180 -45 -150
-56 -200 -40 -180 9 11 32 53 51 93 30 61 37 87 42 145 1 4 8 7 17 7 10 0 13
-6 10 -18 -3 -10 -13 -44 -21 -75 -17 -65 -31 -94 -83 -176 -52 -80 -162 -273
-162 -283 0 -5 53 43 117 106 64 63 121 112 125 110 14 -9 -38 -68 -153 -174
-101 -94 -113 -110 -153 -194 -24 -50 -42 -93 -40 -95 9 -10 265 280 340 385
46 64 62 76 49 35 -23 -73 -320 -411 -388 -442 -22 -10 -72 -77 -64 -86 9 -9
71 29 154 93 85 67 171 166 269 312 65 96 86 96 28 0 -123 -206 -235 -323
-401 -420 -86 -50 -133 -90 -133 -113 0 -8 102 35 167 71 102 57 208 148 296
254 79 96 116 121 63 43 -119 -175 -311 -323 -521 -404 -33 -13 -52 -32 -103
-107 -35 -51 -59 -92 -55 -92 16 0 160 59 268 110 235 110 337 148 299 110
-10 -10 -219 -105 -444 -201 -63 -28 -126 -55 -139 -62 -27 -14 -88 -94 -78
-103 8 -9 469 210 597 283 58 33 107 56 109 51 2 -5 -7 -17 -20 -26 -50 -37
-263 -151 -404 -217 -248 -116 -347 -169 -363 -193 -12 -18 -12 -22 -1 -18
360 117 464 155 583 210 43 20 81 35 83 32 6 -5 -53 -49 -93 -69 -60 -31 -231
-95 -401 -152 -174 -57 -224 -82 -250 -122 -15 -22 -13 -22 64 6 43 16 165 59
272 95 178 62 246 91 370 161 49 27 66 25 35 -4 -57 -56 -189 -114 -469 -209
-159 -54 -298 -102 -307 -108 -18 -10 -179 -206 -174 -212 6 -6 123 27 209 59
45 17 111 40 147 51 36 11 108 40 161 64 85 39 173 67 159 51 -3 -3 -62 -35
-130 -70 -92 -48 -175 -80 -310 -122 -216 -67 -284 -95 -300 -124 -9 -18 -8
-21 7 -21 75 1 353 105 576 216 70 35 127 60 127 55 0 -38 -400 -224 -614
-285 -48 -15 -97 -26 -108 -26 -27 0 -106 -51 -113 -73 -4 -9 -3 -31 0 -49 l7
-31 67 6 c36 4 91 9 121 12 l55 6 -40 -19 c-68 -33 -111 -73 -187 -172 -180
-233 -251 -396 -288 -655 -6 -44 -13 -91 -15 -104 -2 -13 -7 -45 -11 -70 -3
-25 -8 -57 -10 -71 -4 -27 -20 -155 -28 -235 -19 -168 -23 -174 -145 -244 -49
-28 -91 -51 -95 -51 -3 0 -6 9 -6 19 0 41 -55 192 -123 336 -59 126 -71 160
-75 215 l-4 67 43 35 c60 49 97 54 115 16 8 -19 5 -31 -21 -68 -39 -58 -52
-88 -60 -141 -5 -35 -3 -48 12 -65 32 -36 81 -48 119 -29 35 18 94 73 94 88 0
8 7 20 16 28 45 37 94 183 94 278 0 120 -56 189 -177 217 -170 40 -315 -8
-460 -153 -136 -137 -187 -260 -176 -427 11 -166 9 -196 -24 -261 -17 -33 -67
-115 -112 -183 -68 -102 -85 -123 -104 -120 -50 7 -59 94 -27 268 10 58 39
206 65 330 25 124 49 260 52 303 5 64 11 85 35 118 15 21 28 43 28 47 0 5 14
21 31 38 17 16 43 52 57 79 23 43 27 63 27 137 0 72 -3 91 -21 115 -46 63
-144 78 -208 32 -56 -40 -140 -143 -177 -217 -31 -61 -34 -75 -33 -152 0 -47
2 -105 4 -130 3 -40 -3 -56 -50 -135 -84 -142 -126 -226 -139 -280 -22 -86
-31 -102 -59 -108 -30 -6 -118 -122 -151 -199 -24 -57 -41 -164 -40 -261 1
-43 -1 -81 -5 -84 -3 -3 -16 -3 -30 1 -55 14 -99 140 -112 316 l-6 85 79 121
c194 292 408 680 492 892 60 151 74 213 75 332 1 87 -3 113 -21 152 -26 56
-80 96 -150 108 -32 6 7 7 117 4 188 -6 177 -5 400 -30 114 -12 217 -26 360
-48 85 -13 218 -34 295 -45 215 -32 275 -43 270 -51 -2 -4 2 -7 10 -7 8 0 11
5 8 10 -4 7 1 8 13 3 12 -5 15 -4 9 2 -5 6 -64 22 -130 37 -66 14 -152 35
-191 45 -74 19 -160 33 -449 72 -93 13 -160 24 -148 26 56 8 539 -65 692 -104
51 -14 96 -23 98 -20 2 2 -18 9 -44 15 -66 16 -80 27 -34 26 22 0 37 -4 34 -9
-3 -4 4 -5 15 -2 12 4 60 -2 107 -13 170 -41 167 -20 -5 33 -151 47 -370 99
-550 131 -80 14 -166 30 -192 36 l-46 11 67 66 68 67 52 163 c55 169 118 309
201 447 52 86 84 123 94 107 7 -11 0 -238 -9 -292 -30 -188 -26 -419 10 -521
35 -97 78 -134 169 -145 65 -8 124 22 217 113 49 47 83 73 88 67 5 -5 22 -47
37 -94 15 -47 34 -101 42 -120 l14 -35 17 40 c9 22 31 60 49 84 18 24 30 51
27 60 -42 139 -55 484 -22 624 13 55 23 77 34 77 10 0 13 -5 8 -17 -19 -49
-37 -202 -38 -313 0 -99 25 -345 37 -357 1 -2 12 10 24 26 20 28 21 34 11 113
-18 146 -11 508 10 508 4 0 7 -121 7 -269 0 -149 3 -273 7 -277 4 -4 13 1 21
11 9 13 15 71 19 194 6 182 59 576 79 596 15 14 3 -125 -22 -265 -13 -73 -23
-179 -26 -290 l-5 -175 30 35 c42 49 122 195 127 233 61 441 110 738 128 780
22 50 19 13 -19 -222 -41 -258 -84 -555 -79 -560 7 -8 26 14 78 92 l57 83 9
139 c5 77 14 232 20 345 12 217 20 294 46 403 15 62 28 86 40 74 3 -2 -2 -34
-10 -70 -9 -36 -20 -94 -25 -129 -10 -60 -41 -562 -41 -657 l0 -45 49 70 48
69 7 253 c6 229 20 409 32 421 14 14 15 -24 6 -146 -6 -76 -14 -217 -18 -313
l-6 -175 44 65 c87 127 244 438 257 508 5 26 15 93 22 150 7 56 16 102 21 102
4 0 8 51 8 114 0 115 13 159 26 90 7 -39 -1 -220 -13 -289 -6 -35 -8 -37 -13
-15 -4 17 -9 3 -16 -48 -5 -40 -9 -72 -8 -72 5 0 75 122 88 153 25 62 86 273
117 410 31 138 37 153 50 140 5 -5 0 -65 -11 -138z m-6941 -276 c6 10 10 9 14
-3 4 -9 18 -21 32 -28 14 -6 24 -16 22 -22 -2 -6 5 -19 15 -30 14 -15 15 -22
6 -28 -10 -6 -10 -8 0 -8 6 0 12 -9 12 -19 0 -11 5 -23 11 -26 5 -4 8 -12 6
-18 -2 -7 1 -26 8 -43 7 -17 16 -64 20 -104 7 -74 26 -133 45 -145 8 -5 7 -11
-1 -21 -9 -11 -3 -22 30 -54 23 -22 41 -45 41 -50 0 -6 3 -9 8 -8 4 1 22 -2
41 -6 25 -6 30 -11 20 -17 -11 -7 -9 -9 6 -9 11 0 -5 -11 -37 -24 -79 -32
-136 -67 -208 -127 -134 -112 -344 -374 -433 -541 -20 -38 -34 -68 -32 -68 3
0 -1 -10 -9 -22 -24 -39 -42 -138 -24 -138 4 0 8 -7 8 -16 0 -8 5 -12 10 -9 6
3 10 0 10 -8 0 -50 109 1 184 88 30 33 75 95 101 138 25 42 53 77 61 77 36 0
35 -88 -2 -222 -4 -13 -6 -33 -6 -45 0 -13 -3 -23 -7 -23 -4 0 -8 -12 -8 -27
-2 -59 -14 -200 -20 -233 -3 -19 -6 -38 -5 -41 2 -10 -238 -209 -252 -209 -3
0 -6 14 -6 30 0 20 15 52 40 88 69 99 54 140 -42 109 -69 -22 -164 -99 -241
-197 -64 -81 -188 -278 -197 -314 -7 -24 -53 -38 -95 -30 -133 26 -195 190
-195 515 0 258 38 465 135 735 55 152 177 409 266 559 109 183 270 383 364
451 22 16 49 37 59 46 29 26 93 58 101 50 4 -4 5 -1 3 7 -4 20 101 53 120 38
10 -8 16 -7 21 2z m6547 -36 c-3 -16 -8 -46 -12 -68 -3 -22 -17 -98 -31 -170
-19 -97 -26 -165 -26 -267 -1 -76 -4 -138 -8 -138 -4 0 -13 17 -20 37 -17 52
-5 220 27 368 13 66 29 145 35 175 14 76 19 90 30 90 6 0 8 -12 5 -27z m91
-126 c-54 -343 -63 -387 -84 -400 -9 -6 12 151 46 348 12 66 24 135 27 154 4
25 8 31 17 22 9 -9 7 -39 -6 -124z m-520 -319 c-2 -29 -25 -170 -51 -313 -51
-290 -66 -405 -66 -513 0 -52 -3 -71 -11 -66 -32 19 16 446 93 837 22 112 44
147 35 55z m-3267 -343 c0 6 5 2 11 -8 5 -9 7 -22 3 -29 -5 -7 -3 -8 6 -3 9 6
10 2 5 -16 -12 -38 -41 -73 -84 -103 -40 -28 -146 -75 -168 -76 -37 0 23 132
91 200 33 33 54 46 83 50 28 4 40 1 45 -10 4 -8 7 -10 8 -5z m1130 -12 c32
-28 24 -51 -37 -112 -56 -55 -117 -92 -175 -105 -36 -8 -37 10 -4 80 29 63 74
109 129 134 52 24 62 24 87 3z m2716 -522 c-12 -19 -194 -110 -291 -146 -55
-20 -147 -61 -205 -92 -103 -54 -267 -119 -277 -109 -12 12 13 27 80 47 40 12
117 47 172 77 55 30 154 76 220 103 66 26 152 63 190 82 98 48 122 56 111 38z
m-3403 -151 c9 -11 17 -25 17 -30 0 -6 5 -10 10 -10 6 0 10 -8 10 -19 0 -10 7
-24 15 -31 8 -7 13 -16 10 -20 -3 -5 -1 -11 5 -15 32 -20 -6 -25 -187 -25
l-198 0 75 42 c41 22 84 50 96 61 23 22 103 67 119 67 6 0 18 -9 28 -20z
m1055 -121 l3 -81 -103 7 c-57 4 -121 10 -143 14 l-40 7 45 18 c25 9 67 32 94
49 27 17 55 32 63 33 7 1 25 11 40 22 15 11 30 19 33 17 3 -2 7 -41 8 -86z
m1818 -84 c-11 -8 -24 -15 -28 -15 -5 0 -44 -16 -86 -36 -90 -43 -122 -55
-122 -49 0 7 77 45 165 81 90 37 98 39 71 19z m-301 -115 c-11 -5 -27 -9 -35
-9 -9 0 -8 4 5 9 11 5 27 9 35 9 9 0 8 -4 -5 -9z m-2160 -54 c44 -2 104 -4
134 -5 l54 -1 -59 -30 c-81 -41 -177 -130 -292 -273 -179 -224 -262 -370 -393
-692 -19 -47 -65 -246 -74 -320 -15 -122 -27 -194 -37 -230 -10 -34 -12 -37
-16 -16 -2 14 1 89 7 167 30 386 -3 546 -114 561 -55 7 -139 -27 -192 -76
l-43 -40 -29 43 c-40 58 -81 76 -175 76 -93 0 -150 -19 -238 -76 -69 -46 -206
-183 -259 -260 -41 -60 -162 -298 -180 -354 -10 -32 -14 -97 -14 -220 0 -157
-2 -178 -20 -209 -26 -45 -42 -49 -56 -14 -15 38 4 231 55 573 25 164 29 232
17 294 -16 86 -47 143 -94 174 -35 23 -51 27 -116 27 -62 0 -85 -5 -126 -27
-71 -37 -140 -102 -226 -212 -40 -53 -76 -96 -79 -96 -3 0 -4 55 -2 122 2 112
1 127 -20 167 -13 25 -34 53 -48 63 -33 23 -131 41 -184 33 -78 -12 -102 -25
-167 -93 -98 -102 -161 -221 -172 -322 -2 -27 -9 -37 -28 -42 -83 -25 -653
-217 -749 -253 -330 -123 -495 -220 -613 -360 -32 -39 -64 -70 -70 -70 -7 0
-18 17 -24 38 -14 41 -3 160 18 198 13 25 50 40 65 28 8 -6 14 -4 18 6 3 9 10
14 15 11 5 -4 17 2 27 11 10 10 19 17 21 16 10 -8 23 -1 17 9 -4 6 -3 8 4 5
14 -9 43 3 36 14 -3 5 3 9 14 9 10 0 27 8 38 18 11 10 25 17 32 14 6 -2 12 1
12 8 0 6 5 8 10 5 6 -3 10 1 10 11 0 13 3 14 14 5 11 -9 17 -8 28 7 7 11 28
23 46 27 18 4 36 13 39 22 3 8 12 12 19 9 7 -3 16 4 19 15 4 10 10 17 14 14 5
-2 28 13 51 35 24 22 46 40 49 40 8 0 111 99 111 107 0 3 29 34 63 69 35 35
84 86 108 115 24 28 50 57 57 63 38 32 233 230 271 274 44 50 102 82 148 82
12 0 24 4 27 9 8 12 56 20 56 10 0 -5 17 1 38 13 20 11 49 20 64 20 15 0 30 4
33 9 4 5 15 9 26 9 10 0 19 5 19 10 0 6 6 10 14 10 8 0 27 5 43 12 15 6 36 13
45 14 9 2 33 13 52 24 20 11 43 17 52 13 10 -3 15 -2 12 3 -4 5 4 10 15 10 30
3 55 9 63 16 3 4 13 4 22 1 9 -4 13 -2 9 4 -5 7 0 9 13 6 11 -3 27 0 35 7 8 7
15 9 15 5 0 -4 8 -1 17 6 15 12 16 12 8 -1 -8 -13 -6 -13 7 -2 9 7 33 14 52
15 20 1 36 5 36 8 0 3 14 5 30 4 17 -1 30 2 30 7 0 4 10 8 23 8 13 0 28 5 35
12 7 7 12 8 12 3 0 -6 5 -3 10 5 8 12 10 12 10 1 0 -11 3 -11 15 -1 12 10 15
10 15 -1 0 -12 2 -12 9 0 9 14 46 23 89 22 13 -1 21 3 18 7 -5 8 45 15 102 14
12 0 22 4 22 9 0 5 11 4 24 -1 18 -7 26 -5 30 5 4 11 11 13 31 5 17 -7 24 -7
20 0 -7 12 -10 11 75 15 36 2 66 3 68 4 1 1 3 0 5 -1 1 -1 12 4 23 10 12 6 24
8 28 5 10 -11 36 -12 36 -3 0 5 16 12 35 16 19 3 35 9 35 13 0 4 15 12 33 19
31 12 139 102 122 102 -4 0 0 9 10 20 9 10 20 40 22 65 3 25 11 45 17 46 6 1
27 3 46 4 19 2 58 6 85 10 28 3 73 8 100 10 92 6 184 16 207 21 26 6 82 10
283 20 77 3 142 8 143 9 4 4 463 -4 597 -9z m130 -436 c3 -9 3 -25 -1 -34 -3
-9 -2 -16 3 -16 12 0 7 -139 -8 -192 -6 -23 -13 -52 -14 -63 -9 -66 -107 -269
-222 -460 -78 -129 -83 -132 -68 -43 64 363 178 741 246 814 23 25 55 22 64
-6z m2077 -112 c0 -69 -69 -311 -80 -279 -10 31 61 342 75 328 2 -3 5 -25 5
-49z m-6212 -203 c11 -13 10 -14 -4 -9 -9 3 -16 10 -16 15 0 13 6 11 20 -6z
m-12 -40 c-3 -3 -13 7 -23 22 l-17 28 23 -22 c12 -12 20 -25 17 -28z m2695
-448 c-4 -6 0 -8 10 -4 11 4 21 -1 28 -15 9 -16 8 -19 -3 -12 -11 6 -11 5 1
-9 11 -14 11 -17 0 -18 -10 0 -11 -2 -1 -6 6 -2 12 -11 12 -19 0 -9 -5 -12
-12 -8 -8 5 -8 3 -2 -7 9 -15 13 -150 4 -144 -3 1 -6 -19 -7 -45 -3 -77 -97
-271 -136 -278 -50 -10 -71 230 -34 382 22 89 66 186 83 186 8 0 14 4 14 9 0
4 11 6 25 3 14 -2 22 -9 18 -15z m-3663 -23 c0 -8 -19 -13 -24 -6 -3 5 1 9 9
9 8 0 15 -2 15 -3z m1810 -382 c0 -11 -7 -41 -15 -68 -8 -27 -14 -49 -13 -49
0 0 -12 -40 -27 -90 -15 -49 -29 -101 -30 -115 0 -14 -5 -31 -9 -38 -4 -7 -5
-16 -1 -21 3 -5 1 -12 -4 -16 -6 -3 -8 -24 -7 -47 2 -23 0 -53 -4 -67 -7 -27
13 -90 34 -103 22 -15 -11 -43 -120 -100 -343 -181 -796 -272 -1004 -202 -54
18 -150 96 -150 122 0 15 9 15 58 -2 58 -21 152 -31 152 -17 0 8 6 9 18 2 15
-8 50 -8 60 -1 1 2 10 3 20 4 9 1 23 5 30 9 6 5 17 5 22 2 6 -3 10 -1 10 5 0
6 5 8 10 5 6 -3 10 -1 10 6 0 10 3 10 11 2 13 -13 42 -6 33 8 -3 5 2 6 10 3 9
-3 16 -1 16 5 0 6 7 11 16 11 8 0 12 5 8 11 -4 8 1 9 15 4 16 -5 27 -1 37 12
10 13 13 14 9 2 -4 -9 0 -16 9 -16 8 0 12 6 9 13 -3 8 6 16 22 20 14 3 24 11
22 18 -4 13 41 38 54 30 5 -3 9 -1 9 3 0 5 9 14 21 21 12 8 18 9 14 3 -3 -6
-1 -11 4 -11 6 0 11 7 11 16 0 8 4 13 9 10 5 -3 11 1 15 9 3 8 14 15 25 15 11
0 21 9 25 23 3 14 14 23 27 24 12 1 43 24 69 50 26 26 58 54 73 62 14 8 25 19
24 25 -1 6 4 10 12 8 9 -2 11 3 7 14 -4 12 -2 15 9 10 8 -3 15 -2 15 2 0 10
36 56 73 93 15 15 27 30 27 33 0 3 17 23 38 45 21 22 45 53 52 68 17 32 51 69
62 66 4 -2 5 3 2 11 -5 13 42 74 59 75 4 1 7 -7 7 -17z m1375 -642 c3 -5 1
-10 -4 -10 -6 0 -11 5 -11 10 0 6 2 10 4 10 3 0 8 -4 11 -10z m-3331 -258 c3
-5 -1 -9 -9 -9 -8 0 -12 4 -9 9 3 4 7 8 9 8 2 0 6 -4 9 -8z m73 -74 c-3 -8 -6
-5 -6 6 -1 11 2 17 5 13 3 -3 4 -12 1 -19z m43 13 c0 -5 -7 -11 -14 -14 -10
-4 -13 -1 -9 9 6 15 23 19 23 5z m3536 -290 c-3 -5 1 -23 10 -40 8 -17 13 -35
10 -39 -6 -9 -11 -38 -21 -122 -4 -30 -16 -65 -26 -78 l-18 -23 -18 28 c-27
41 -24 164 6 221 12 23 26 40 30 37 5 -3 11 2 15 10 3 8 8 15 11 15 4 0 4 -4
1 -9z m-3623 -95 c4 -10 1 -13 -9 -9 -15 6 -19 23 -5 23 5 0 11 -7 14 -14z
m1237 -40 c0 -3 -4 -8 -10 -11 -5 -3 -10 -1 -10 4 0 6 5 11 10 11 6 0 10 -2
10 -4z m-1234 -35 c-4 -5 0 -12 6 -14 8 -3 6 -6 -4 -6 -10 -1 -18 6 -18 14 0
8 5 15 11 15 5 0 8 -4 5 -9z m6 -59 c-19 -19 -20 -19 -37 1 -17 19 -16 20 8
13 15 -3 29 -1 32 5 4 6 9 8 12 5 2 -2 -4 -13 -15 -24z m48 -16 c0 -3 -4 -8
-10 -11 -5 -3 -10 -1 -10 4 0 6 5 11 10 11 6 0 10 -2 10 -4z m845 -46 c3 -5 1
-10 -4 -10 -6 0 -11 5 -11 10 0 6 2 10 4 10 3 0 8 -4 11 -10z m-717 -56 c-4
-3 -12 5 -18 18 -12 22 -12 22 6 6 10 -10 15 -20 12 -24z m19 -16 c-3 -8 -6
-5 -6 6 -1 11 2 17 5 13 3 -3 4 -12 1 -19z m-37 -18 c0 -5 -2 -10 -4 -10 -3 0
-8 5 -11 10 -3 6 -1 10 4 10 6 0 11 -4 11 -10z"/>
<path d="M2550 3485 c-14 -16 -3 -20 19 -6 8 5 9 11 3 15 -5 3 -15 -1 -22 -9z"/>
<path d="M795 5309 c-4 -6 -5 -12 -2 -15 2 -3 7 2 10 11 7 17 1 20 -8 4z"/>
<path d="M850 4886 c0 -2 7 -7 16 -10 8 -3 12 -2 9 4 -6 10 -25 14 -25 6z"/>
<path d="M880 4851 c0 -17 18 -21 24 -6 3 9 0 15 -9 15 -8 0 -15 -4 -15 -9z"/>
<path d="M971 4745 c0 -5 7 -26 14 -45 9 -23 14 -28 14 -15 0 11 -6 31 -14 45
-8 14 -14 21 -14 15z"/>
<path d="M0 3681 c0 -6 7 -14 16 -18 13 -5 13 -7 2 -14 -9 -6 -9 -9 -1 -9 21
0 23 17 3 35 -12 11 -20 13 -20 6z"/>
<path d="M5 3581 c-3 -5 -2 -12 3 -15 5 -3 9 1 9 9 0 17 -3 19 -12 6z"/>
<path d="M140 3561 c0 -6 4 -13 10 -16 6 -3 7 1 4 9 -7 18 -14 21 -14 7z"/>
<path d="M17 3523 c-5 -27 1 -29 19 -5 12 14 15 15 23 2 5 -8 7 -18 5 -22 -3
-4 7 -8 23 -8 22 0 25 2 13 10 -8 5 -11 10 -6 10 5 0 3 7 -4 15 -7 8 -16 12
-21 9 -5 -3 -9 -1 -9 3 0 20 -39 7 -43 -14z m68 -3 c3 -5 1 -10 -4 -10 -6 0
-11 5 -11 10 0 6 2 10 4 10 3 0 8 -4 11 -10z"/>
<path d="M279 3503 c-13 -16 -12 -17 4 -4 9 7 17 15 17 17 0 8 -8 3 -21 -13z"/>
<path d="M7 3468 c3 -6 16 -7 29 -4 13 4 23 3 22 -1 0 -5 2 -16 7 -26 8 -19 2
-30 -19 -33 -9 -1 -13 6 -12 21 2 17 -1 21 -14 18 -23 -6 -26 -76 -4 -94 13
-10 17 -10 25 2 5 9 9 10 9 2 0 -19 -20 -26 -35 -13 -13 11 -15 7 -15 -23 0
-30 3 -35 18 -31 16 5 16 5 0 -6 -17 -10 -18 -104 -18 -1645 l0 -1635 1179 0
c934 0 1181 3 1185 13 5 9 7 9 12 0 7 -16 84 -17 84 -2 0 5 -6 7 -12 3 -9 -5
-9 -2 1 9 15 18 26 23 16 7 -10 -16 5 -12 36 11 16 11 29 17 28 12 -3 -19 2
-33 12 -33 6 0 8 7 5 16 -5 12 -1 14 17 10 12 -3 16 -3 10 0 -7 3 -13 9 -13
14 0 10 40 7 59 -5 9 -5 12 -4 7 3 -3 6 1 15 10 20 11 6 13 11 5 16 -6 4 -14
0 -17 -9 -6 -13 -8 -14 -15 -3 -7 11 -9 11 -9 -1 0 -10 -3 -11 -14 -2 -10 8
-16 9 -21 1 -3 -6 -10 -8 -15 -5 -5 3 -20 1 -32 -5 -22 -11 -22 -10 -4 4 11 9
14 16 8 16 -7 0 -12 5 -12 10 0 14 37 12 44 -2 4 -9 5 -8 5 2 -2 29 1 40 12
40 7 0 9 -9 6 -21 -4 -16 -3 -18 9 -8 8 6 14 8 14 3 0 -11 20 18 20 29 0 4
-10 7 -22 7 -13 0 -18 4 -13 8 6 4 16 15 24 25 12 15 12 17 -3 11 -10 -4 -18
0 -22 10 -3 9 -10 16 -16 16 -5 0 -6 -5 -2 -12 4 -6 3 -8 -4 -4 -6 3 -13 2
-17 -4 -4 -7 -14 -6 -28 2 -20 10 -21 10 -8 -5 16 -20 2 -22 -23 -4 -16 12
-17 16 -5 37 12 19 12 23 0 28 -10 3 -7 8 10 18 21 11 22 13 7 19 -13 5 -15
15 -11 42 5 31 4 35 -10 30 -16 -6 -22 4 -18 26 1 5 -3 6 -9 2 -5 -3 -18 -1
-27 4 -10 6 -13 11 -8 11 6 0 3 5 -5 10 -13 8 -12 10 3 10 11 0 15 5 11 11 -4
8 -9 8 -17 0 -16 -16 -26 -13 -22 7 2 9 4 20 4 24 1 3 12 1 25 -5 16 -8 23
-19 21 -34 -1 -13 2 -23 6 -23 5 0 9 5 9 10 0 6 5 10 11 10 5 0 8 -4 5 -9 -6
-10 58 -71 74 -71 21 0 9 20 -12 21 -13 0 -17 3 -11 6 10 3 9 8 -2 20 -12 12
-13 18 -4 29 15 19 4 30 -14 15 -16 -13 -50 -4 -41 11 3 5 12 7 19 4 8 -3 19
3 27 12 12 15 11 16 -4 3 -15 -11 -18 -11 -18 0 0 9 -3 10 -11 2 -13 -13 -72
3 -64 17 3 5 1 11 -5 15 -15 9 -12 35 4 29 8 -3 18 7 26 25 9 22 19 31 36 31
13 0 24 4 24 9 0 12 -48 1 -61 -15 -9 -11 -13 -11 -25 1 -8 7 -14 18 -14 24 0
14 17 14 23 1 3 -6 4 -5 3 2 -1 7 10 23 26 36 25 21 31 51 7 36 -6 -3 -8 -8
-5 -11 6 -7 -32 -43 -45 -43 -4 0 -15 8 -24 17 -10 9 -31 18 -48 20 -17 2 -36
8 -42 15 -7 8 -5 9 7 5 9 -3 22 1 28 9 10 11 10 14 -1 14 -10 0 -10 3 -1 12
10 10 15 10 22 -2 8 -12 10 -11 10 7 0 12 6 23 13 26 6 2 9 8 4 12 -4 5 -17
-2 -28 -14 -15 -16 -28 -21 -45 -17 -14 4 -24 2 -24 -4 0 -6 4 -8 10 -5 5 3
10 -1 10 -9 0 -9 -3 -15 -7 -15 -21 3 -22 -3 -8 -31 18 -34 18 -40 5 -40 -5 0
-9 5 -7 11 1 6 -4 14 -12 17 -8 2 -11 0 -7 -6 3 -6 2 -13 -3 -17 -12 -7 23
-45 42 -45 8 0 13 10 13 23 -1 12 4 21 12 20 6 -2 12 2 12 7 0 15 19 12 36 -4
17 -18 18 -33 1 -39 -9 -4 -9 -6 1 -6 6 -1 21 -10 32 -21 l20 -20 -20 0 c-12
0 -25 -10 -32 -25 -8 -17 -18 -25 -31 -23 -11 2 -22 -3 -25 -11 -3 -9 0 -11 8
-6 8 5 11 4 7 -2 -4 -6 0 -16 8 -23 13 -10 15 -9 15 9 0 11 4 21 9 21 5 0 9
-11 9 -24 0 -36 -33 -40 -48 -7 -11 24 -13 24 -24 8 -7 -9 -16 -17 -20 -17 -9
0 10 34 30 54 9 9 11 16 4 16 -6 0 -8 5 -5 10 10 16 25 12 25 -7 1 -17 2 -16
15 1 8 10 11 24 7 30 -11 18 -11 40 -1 52 7 9 3 12 -13 11 -17 -2 -23 -8 -25
-26 -1 -18 1 -20 8 -10 5 8 9 12 10 9 0 -3 2 -15 5 -28 3 -20 2 -21 -16 -12
-11 6 -20 14 -20 18 0 4 -12 13 -27 19 -21 10 -29 10 -36 0 -5 -7 -6 4 -3 30
5 37 3 44 -18 58 -13 9 -31 13 -41 9 -15 -6 -17 -3 -13 19 5 24 2 26 -23 23
-22 -3 -26 0 -21 13 3 9 10 20 16 24 6 5 -5 5 -24 2 -29 -5 -32 -4 -17 5 10 7
29 9 42 6 19 -5 23 -3 19 9 -4 10 -2 13 8 10 19 -8 44 20 27 30 -6 4 -16 1
-21 -6 -8 -12 -9 -11 -5 1 2 8 12 14 21 13 13 -1 16 4 13 17 -5 21 19 36 27
17 3 -7 5 -6 5 3 1 17 41 25 41 9 0 -17 27 -39 48 -39 11 0 23 -6 25 -12 4
-10 6 -10 6 0 1 8 6 10 14 6 7 -4 9 -3 4 2 -5 5 -12 9 -15 10 -33 4 -62 19
-68 36 -3 11 -3 22 0 25 3 4 6 1 6 -5 0 -16 17 -15 23 1 3 9 -5 13 -27 12 -17
0 -34 -3 -37 -8 -3 -4 -16 -9 -29 -12 -13 -2 -32 -14 -42 -25 -11 -12 -23 -19
-26 -15 -4 3 0 10 7 14 9 6 10 11 2 15 -6 4 -9 12 -6 17 4 5 1 9 -6 9 -7 0 -9
3 -5 7 4 5 14 -1 22 -11 11 -16 16 -17 29 -6 8 7 15 18 15 24 0 6 -4 5 -9 -3
-7 -12 -12 -11 -30 1 -11 8 -18 18 -14 21 3 4 3 7 0 7 -10 0 -39 -61 -33 -68
3 -3 6 1 6 8 0 11 3 11 12 2 9 -9 9 -15 1 -23 -8 -8 -19 -3 -42 20 -17 17 -38
31 -48 32 -11 0 -13 3 -6 6 7 2 13 12 13 21 0 15 2 15 10 2 9 -13 11 -13 20 0
5 8 10 11 11 5 0 -5 4 1 8 15 4 14 13 24 20 22 7 -1 10 2 6 8 -3 6 3 10 16 10
21 0 22 -1 4 -20 -10 -11 -21 -18 -24 -15 -4 2 -8 -6 -8 -17 -2 -19 -1 -19 16
-4 10 9 21 13 25 9 4 -4 4 0 0 10 -3 10 -1 17 5 17 6 0 11 -4 11 -10 0 -16 17
-12 24 6 3 8 2 12 -4 9 -6 -3 -10 -2 -10 4 0 5 8 15 17 20 10 6 13 11 8 11 -6
0 -16 -5 -22 -11 -17 -17 -35 -1 -27 23 7 22 8 22 -45 0 -10 -4 -13 -1 -8 10
6 17 -12 30 -45 33 -24 3 -23 -12 1 -20 11 -3 23 -15 26 -26 5 -15 10 -17 26
-9 21 12 26 1 7 -18 -17 -17 -49 -15 -42 2 3 8 0 17 -6 21 -12 7 -40 -12 -40
-27 0 -7 4 -7 13 0 9 7 17 4 29 -12 16 -23 16 -23 -18 -24 -22 -1 -34 3 -33
11 4 29 -3 39 -36 53 -20 8 -38 21 -41 29 -4 8 -11 12 -17 8 -6 -4 -1 8 12 25
12 18 27 32 32 32 22 0 36 25 28 49 -7 17 -14 21 -29 16 -15 -5 -20 -2 -20 12
0 15 -4 14 -20 -7 -16 -20 -22 -22 -29 -11 -10 15 -3 53 9 46 7 -5 24 24 18
31 -7 6 -34 -23 -46 -50 -7 -16 -15 -26 -19 -23 -3 4 0 13 7 22 13 15 5 20
-25 16 -5 -1 0 6 12 16 l22 18 -27 24 c-15 13 -29 23 -32 22 -3 -1 -6 6 -8 16
-3 15 -1 16 7 3 8 -12 12 -12 21 -2 5 6 7 10 4 7 -10 -7 -36 24 -29 35 3 6 -1
7 -10 4 -12 -5 -14 0 -11 29 4 27 1 35 -10 33 -23 -4 -32 -24 -24 -59 4 -22
12 -32 23 -31 10 1 17 -5 17 -16 0 -14 -5 -17 -21 -13 -19 5 -21 3 -15 -20 4
-18 2 -27 -5 -27 -8 0 -10 13 -6 40 3 22 1 43 -5 46 -5 3 -7 12 -4 19 2 7 -5
23 -16 35 -20 21 -20 24 -5 35 19 14 23 30 5 19 -7 -4 -8 -3 -4 4 5 9 12 9 29
1 l21 -12 -23 -8 c-12 -5 -19 -13 -16 -19 4 -6 15 -3 30 7 13 10 19 20 14 21
-5 2 -9 8 -9 14 0 6 7 7 16 4 9 -3 12 -2 9 5 -4 6 -13 8 -21 5 -8 -3 -13 0
-11 6 1 6 -4 13 -12 16 -8 3 -11 0 -7 -7 4 -6 1 -11 -8 -11 -9 0 -16 7 -16 16
0 9 -5 12 -12 8 -9 -5 -9 -2 1 9 7 9 19 17 25 17 6 0 4 -5 -4 -10 -12 -8 -10
-10 9 -10 16 0 21 4 18 14 -3 8 1 20 9 26 8 7 14 17 14 23 0 6 -6 2 -14 -9 -8
-10 -18 -16 -22 -11 -4 4 -15 0 -24 -8 -16 -14 -17 -14 -13 10 3 14 1 25 -6
25 -5 0 -8 -7 -5 -15 4 -10 0 -15 -11 -15 -14 0 -15 -3 -6 -14 8 -10 9 -16 1
-21 -5 -3 -10 1 -10 9 0 8 -11 21 -24 28 -24 13 -24 13 -5 37 20 24 23 20 22
-26 0 -6 5 -9 11 -7 14 5 19 44 5 44 -5 0 -9 5 -9 10 0 20 21 10 38 -19 23
-38 29 -40 47 -14 12 18 14 27 5 40 -11 17 -11 16 -5 -1 10 -34 -17 -37 -47
-5 -15 16 -28 34 -28 39 0 6 -4 8 -10 5 -5 -3 -12 5 -16 19 -3 13 -12 27 -20
30 -8 3 -14 10 -14 16 0 6 4 8 10 5 5 -3 17 -2 26 3 15 8 15 10 -1 16 -10 3
-23 2 -30 -4 -9 -8 -15 -8 -20 0 -3 5 -11 10 -17 10 -6 0 -3 -9 6 -19 17 -19
17 -20 -13 -19 -31 1 -40 11 -21 23 16 10 12 25 -5 19 -8 -4 -15 -1 -15 5 0 6
-5 11 -11 11 -5 0 -8 -4 -5 -9 3 -5 -1 -11 -9 -15 -8 -3 -14 0 -12 7 1 7 -9
12 -25 12 -14 0 -30 3 -34 8 -13 13 -23 7 -18 -10 5 -15 4 -15 -4 -3 -15 20
-4 32 20 24 17 -5 20 -3 14 12 -6 18 -5 18 8 1 8 -11 31 -20 56 -22 35 -3 41
-1 36 12 -4 9 0 23 9 33 13 15 13 17 0 17 -8 0 -15 -6 -15 -14 0 -7 -5 -13
-11 -13 -5 0 -8 -4 -5 -9 8 -13 -16 -19 -39 -10 -11 4 -14 8 -7 8 6 1 11 11
11 24 -1 16 -2 18 -6 5 -2 -10 -9 -18 -14 -18 -6 0 -7 9 -4 20 5 14 2 20 -10
20 -10 0 -13 -5 -9 -12 5 -8 0 -9 -14 -6 -12 4 -19 2 -16 -3 3 -5 -4 -21 -15
-34 -11 -15 -22 -21 -26 -15 -3 5 -11 10 -16 10 -6 0 -8 -4 -5 -9 3 -5 -1 -12
-9 -15 -13 -4 -13 -2 -5 14 7 12 7 21 0 25 -5 3 -10 11 -10 17 0 7 5 6 15 -2
8 -6 19 -9 24 -5 7 4 8 0 4 -11 -4 -12 -2 -15 8 -12 8 2 15 17 17 31 3 28 35
53 52 42 6 -3 10 -2 10 4 0 19 -21 23 -39 7 -10 -9 -21 -16 -24 -16 -11 0 -8
38 3 45 6 4 7 -1 3 -12 -6 -15 -5 -16 9 -3 9 8 14 18 12 21 -2 4 3 10 12 13 8
3 12 2 9 -3 -3 -5 -1 -12 5 -16 16 -10 12 17 -6 36 -12 14 -13 22 -4 38 7 14
7 21 0 21 -5 0 -10 -7 -10 -16 0 -13 -7 -15 -35 -10 -21 4 -35 3 -35 -3 0 -6
6 -8 13 -5 8 3 14 -2 14 -11 0 -8 -4 -15 -9 -15 -4 0 -8 -6 -8 -12 1 -7 10 -2
20 11 11 13 20 18 20 12 0 -7 5 -9 10 -6 6 3 10 1 10 -4 0 -6 -4 -11 -9 -11
-15 0 -61 -49 -61 -65 0 -8 7 -15 15 -15 8 0 15 -4 15 -10 0 -13 -17 -13 -25
0 -4 6 -10 8 -15 5 -4 -3 -6 5 -3 17 5 23 5 23 -11 3 -19 -22 -10 1 9 25 22
28 24 57 3 74 -10 9 -23 14 -29 10 -6 -3 -3 -11 8 -19 17 -13 16 -14 -6 -8
-23 6 -23 5 -7 -19 16 -24 16 -26 -4 -31 -13 -3 -24 1 -30 13 -13 23 -13 33
-1 25 14 -8 25 35 12 48 -6 6 -11 8 -11 3 0 -11 -25 16 -33 36 -4 12 -2 15 9
11 7 -3 14 -11 14 -19 0 -19 25 -18 41 3 8 9 9 14 3 10 -13 -7 -64 39 -64 58
0 8 4 15 10 15 5 0 7 8 4 18 -4 10 -3 13 3 6 4 -6 15 -14 23 -17 11 -4 10 -7
-7 -12 -13 -4 -20 -11 -17 -17 3 -5 11 -5 19 2 9 8 11 5 7 -15 -2 -15 0 -25 7
-25 11 0 16 16 11 35 -2 6 -2 18 -2 28 0 9 -3 17 -8 17 -4 0 -13 12 -18 28 -6
15 -11 21 -11 15 -1 -7 -7 -13 -15 -13 -8 0 -16 -7 -20 -15 -3 -8 -1 -15 5
-15 5 0 2 -11 -7 -25 -12 -18 -13 -25 -3 -25 7 0 9 -3 6 -6 -4 -4 -13 -1 -22
6 -8 7 -15 9 -15 5 0 -4 -7 -2 -15 5 -8 7 -23 9 -32 6 -10 -4 -14 -3 -9 1 4 4
24 8 44 8 43 0 52 17 17 33 -26 12 -59 6 -49 -9 3 -5 1 -9 -4 -9 -15 0 -24 32
-12 44 8 8 9 5 5 -9 -6 -19 -5 -19 13 2 18 20 20 20 36 5 13 -14 16 -14 17 -2
1 8 1 19 0 24 -1 4 1 17 4 27 6 18 7 18 28 -1 26 -24 31 -25 48 -2 13 15 12
16 -4 3 -16 -12 -20 -12 -34 2 -14 14 -14 18 -2 34 13 16 12 17 -3 4 -15 -11
-19 -11 -24 2 -3 9 -3 20 0 26 4 5 -3 7 -15 4 -11 -3 -16 -9 -11 -12 15 -10
20 -35 10 -53 -9 -18 -34 -15 -36 5 -2 26 -8 47 -16 54 -9 9 -3 -42 8 -68 5
-10 2 -19 -8 -22 -9 -4 -15 -1 -13 6 1 6 -8 13 -21 15 -12 2 -20 7 -17 12 3 5
12 7 20 4 11 -4 14 4 13 38 0 23 -3 36 -6 28 -3 -8 -11 -19 -19 -23 -7 -5 -10
-14 -7 -20 5 -9 4 -9 -5 -1 -14 13 2 64 20 64 8 0 8 4 0 14 -7 8 -8 17 -3 20
5 3 15 -8 22 -24 7 -17 19 -30 27 -30 8 0 11 5 8 10 -3 6 2 10 12 11 10 0 13
3 6 6 -7 2 -13 14 -13 25 0 17 3 18 15 8 8 -7 15 -21 15 -32 0 -10 5 -16 10
-13 20 12 -34 79 -65 80 -5 1 -9 7 -7 15 3 11 0 12 -8 4 -15 -15 -2 -48 15
-34 6 5 14 8 17 5 6 -7 -3 -65 -11 -65 -11 0 -52 80 -46 90 3 6 1 10 -4 10
-14 0 -14 -16 -1 -40 7 -13 6 -19 -5 -24 -15 -5 -17 2 -19 68 -1 16 -7 31 -14
34 -11 3 -12 0 -2 -18 10 -18 9 -21 -1 -18 -15 5 -45 -20 -35 -29 3 -4 6 -3 6
1 0 4 9 2 20 -4 11 -6 20 -19 20 -28 0 -10 5 -23 12 -30 8 -8 8 -12 1 -12 -9
0 -23 21 -27 40 -3 15 -19 30 -27 25 -14 -9 -22 21 -11 42 9 16 6 18 -29 19
-22 1 -36 -3 -33 -8 3 -5 8 -7 11 -4 7 7 33 -20 33 -34 0 -6 -4 -8 -10 -5 -5
3 -10 2 -10 -4 0 -5 5 -11 11 -13 7 -2 6 -8 -4 -17 -14 -11 -15 -8 -12 24 2
29 0 35 -11 31 -9 -3 -12 -1 -9 4 3 6 -1 10 -10 10 -9 0 -13 4 -10 10 3 5 -3
19 -14 31 -11 12 -18 27 -14 32 4 6 1 7 -7 2 -8 -5 -11 -3 -8 6 3 8 11 13 17
11 8 -1 9 2 5 9 -5 8 -2 10 8 7 9 -4 15 0 15 8 0 8 -6 14 -12 14 -7 0 -20 10
-29 23 -14 19 -15 19 -7 1 12 -25 9 -47 -8 -68 -13 -16 -6 -40 10 -31 5 4 9
-3 9 -14 0 -29 -14 -26 -28 5 -9 19 -9 31 -1 46 10 18 9 20 -6 15 -9 -4 -21
-7 -26 -7 -6 0 -7 -6 -3 -12 5 -9 2 -8 -9 1 -15 12 -17 12 -14 0 2 -8 2 -11 0
-6 -8 14 -25 7 -19 -8 8 -23 -8 -18 -23 8 -7 12 -10 19 -6 15 4 -4 19 -1 34 6
14 7 33 11 42 9 17 -4 32 38 22 64 -10 26 -21 12 -17 -22 5 -42 -12 -47 -21
-6 -3 16 -16 37 -28 47 -12 10 -16 12 -9 4 6 -8 12 -18 12 -23 0 -14 -24 15
-37 46 -7 15 -21 27 -30 27 -25 1 -57 26 -44 35 6 3 11 12 11 18 0 8 -3 8 -8
2 -4 -6 -13 -10 -19 -9 -7 1 -18 2 -24 3 -5 0 -8 5 -4 10 3 6 -3 14 -12 20
-10 6 -12 11 -5 11 6 0 12 6 12 13 0 15 33 57 44 57 4 0 4 -4 1 -10 -3 -6 1
-7 10 -3 13 5 14 7 3 14 -20 13 -48 11 -45 -3 1 -8 -7 -12 -23 -10 -19 2 -22
0 -10 -8 10 -6 11 -10 3 -10 -7 0 -10 -7 -7 -17 5 -15 4 -16 -5 -3 -9 13 -12
13 -28 -3 -17 -17 -17 -18 0 -11 10 3 17 1 17 -5 0 -7 11 -23 25 -36 22 -23
23 -25 5 -25 -11 0 -20 6 -21 13 0 6 -4 3 -9 -8 -7 -16 -9 -14 -7 12 2 31 -13
47 -22 22 -2 -7 2 -9 10 -5 8 4 6 1 -4 -7 -14 -11 -15 -16 -5 -20 9 -4 7 -6
-4 -6 -13 -1 -16 6 -13 27 5 37 15 62 26 62 6 0 4 10 -3 23 -7 12 -11 26 -10
31 2 4 -3 14 -9 22 -10 12 -8 13 7 8 12 -4 15 -3 7 3 -8 6 -9 14 -3 23 18 28
12 49 -12 42 -12 -3 -17 -7 -10 -10 19 -6 14 -40 -9 -52 -17 -10 -24 -7 -44
14 -23 25 -23 45 2 25 10 -9 13 -8 13 0 0 7 5 9 10 6 8 -5 8 -11 0 -20 -7 -8
-7 -16 -2 -19 16 -10 21 32 6 45 -18 15 -18 33 0 26 10 -4 13 -1 9 9 -4 11 -9
12 -16 5 -20 -20 -26 -12 -16 21 6 23 6 29 -2 21 -6 -6 -18 -9 -25 -6 -8 3
-14 0 -14 -7 0 -6 -5 -8 -10 -5 -6 4 -8 11 -5 16 4 5 1 9 -5 9 -7 0 -10 -7 -7
-15 4 -8 2 -17 -2 -20 -5 -2 -12 6 -15 19 -4 15 -13 23 -23 22 -12 -1 -19 7
-21 23 -3 19 -6 21 -14 10 -8 -11 -9 -11 -5 3 3 9 0 19 -8 22 -14 5 -10 41 8
64 14 18 22 15 34 -18 9 -25 9 -30 -3 -30 -8 0 -14 -6 -14 -14 0 -8 9 -14 19
-13 11 0 18 4 15 8 -2 4 2 10 8 12 10 4 9 8 -2 16 -8 5 -11 13 -8 17 10 9 -18
47 -37 50 -8 1 -13 -2 -9 -7 3 -5 -4 -9 -15 -9 -15 0 -19 -6 -16 -25 1 -14 -2
-28 -6 -31 -15 -9 -10 -34 6 -34 12 0 13 -4 3 -25 -6 -13 -15 -22 -19 -19 -5
3 -9 0 -9 -5 0 -6 -8 -11 -17 -11 -13 0 -10 5 10 19 16 10 24 21 19 25 -6 3
-13 2 -17 -4 -4 -6 -11 -8 -16 -4 -6 3 -2 12 8 19 20 15 18 19 -16 30 -16 5
-21 4 -17 -4 4 -6 3 -11 -3 -11 -6 0 -8 -6 -5 -13 3 -8 -1 -19 -9 -25 -11 -9
-14 -8 -14 3 0 8 4 12 8 9 5 -2 6 9 4 26 -2 17 0 28 5 25 5 -3 16 3 26 12 16
16 17 16 12 1 -5 -12 -2 -16 12 -15 14 1 18 9 18 37 0 19 -4 40 -9 46 -6 7 -4
16 5 23 12 10 13 9 9 -8 -3 -12 -1 -21 5 -21 18 0 22 16 9 34 -19 25 -50 10
-43 -20 4 -14 2 -24 -4 -24 -5 0 -10 -5 -10 -11 0 -5 4 -7 10 -4 6 3 10 1 10
-4 0 -16 -20 -13 -26 4 -4 8 -16 15 -28 15 -18 1 -19 2 -5 13 16 12 15 37 -2
37 -4 0 -6 -7 -3 -15 4 -8 2 -15 -4 -15 -16 0 -26 72 -10 81 9 6 6 9 -11 9
-16 0 -21 -4 -18 -15 4 -8 2 -17 -3 -20 -6 -4 -10 2 -11 12 -1 10 -2 35 -4 55
-4 44 17 80 36 61 10 -10 9 -19 -9 -42 -12 -17 -18 -32 -13 -36 5 -3 12 4 16
14 3 11 14 23 25 26 22 7 33 32 18 41 -6 4 -8 3 -4 -4 3 -6 2 -13 -3 -16 -5
-4 -12 3 -16 14 -8 26 -30 25 -49 -2 -9 -12 -17 -19 -17 -15 -1 4 -3 12 -4 17
-1 6 -3 13 -4 18 -1 4 -10 -3 -21 -16 -11 -13 -16 -30 -13 -40 5 -13 3 -14 -7
-5 -10 9 -9 17 3 42 9 17 11 28 5 25 -6 -4 -14 0 -19 7 -4 7 -11 10 -16 6 -4
-5 -1 -12 6 -17 16 -9 8 -40 -11 -40 -10 0 -10 2 1 9 9 6 10 11 2 15 -6 4 -14
0 -17 -8 -8 -22 -17 -20 -32 5 -13 20 -12 21 11 15 22 -5 25 -3 23 24 0 17 -4
30 -8 30 -5 0 -8 8 -8 18 0 10 3 13 8 6 4 -6 18 -14 32 -18 19 -6 21 -5 10 3
-13 10 -8 15 13 12 4 0 7 4 7 9 0 14 -13 13 -28 -2 -9 -9 -15 -9 -20 -2 -9 13
-93 14 -85 2z m156 -138 c-3 -11 0 -20 6 -20 6 0 11 -5 11 -11 0 -6 -9 -8 -21
-4 -18 6 -19 5 -10 -13 15 -27 14 -32 -4 -26 -8 3 -13 13 -11 22 13 64 19 81
26 77 5 -3 6 -14 3 -25z m-54 -4 c9 -11 7 -15 -9 -19 -17 -4 -19 -3 -10 8 8
10 7 14 -2 18 -8 3 -8 6 -2 6 6 1 17 -5 23 -13z m-45 -27 c-3 -6 0 -16 7 -21
12 -8 11 -9 -1 -5 -18 4 -27 37 -10 37 6 0 8 -5 4 -11z m56 -52 c0 -4 5 -5 12
-1 6 4 8 3 5 -4 -7 -11 -44 -5 -52 9 -3 4 4 7 15 6 11 -1 20 -5 20 -10z m90
-17 c7 -5 -1 -7 -19 -5 -33 2 -56 15 -28 15 10 0 17 6 17 13 0 9 3 8 9 -2 5
-7 14 -17 21 -21z m-151 17 c-2 -1 -13 -9 -24 -17 -19 -14 -19 -14 -6 3 7 9
18 17 24 17 6 0 8 -1 6 -3z m45 -25 c3 -5 -1 -9 -9 -9 -8 0 -12 4 -9 9 3 4 7
8 9 8 2 0 6 -4 9 -8z m54 -27 c-3 -3 -9 2 -12 12 -6 14 -5 15 5 6 7 -7 10 -15
7 -18z m30 -16 c-3 -8 -7 -3 -11 10 -4 17 -3 21 5 13 5 -5 8 -16 6 -23z m42
23 c0 -4 -6 -14 -12 -21 -11 -11 -10 -13 5 -8 9 4 17 2 17 -3 0 -15 -18 -21
-26 -8 -13 21 -11 48 3 48 7 0 13 -4 13 -8z m-96 -10 c3 -5 -1 -9 -9 -9 -8 0
-12 4 -9 9 3 4 7 8 9 8 2 0 6 -4 9 -8z m-94 -6 c0 -2 -7 -7 -16 -10 -8 -3 -12
-2 -9 4 6 10 25 14 25 6z m100 -37 c0 -6 -4 -7 -10 -4 -5 3 -10 11 -10 16 0 6
5 7 10 4 6 -3 10 -11 10 -16z m64 -10 c-3 -6 2 -19 12 -30 9 -10 13 -19 8 -19
-5 0 -16 9 -24 20 -8 11 -22 20 -32 20 -10 0 -18 4 -18 10 0 5 6 7 14 4 8 -3
17 0 21 5 3 6 11 9 16 5 5 -3 7 -10 3 -15z m83 4 c4 -12 -25 -26 -38 -17 -5 3
-9 11 -8 17 0 9 2 9 6 0 2 -7 9 -13 15 -13 6 0 7 7 4 16 -4 10 -1 14 6 12 6
-2 13 -9 15 -15z m-108 -67 c9 -11 9 -16 -1 -22 -7 -4 -10 -4 -6 1 4 4 3 14
-3 22 -6 7 -9 13 -6 13 2 0 10 -6 16 -14z m207 -61 c-2 -7 2 -12 11 -11 9 0
18 -6 20 -14 3 -11 2 -12 -5 -2 -10 14 -45 5 -36 -9 3 -5 1 -9 -4 -9 -14 0
-25 34 -13 38 6 2 11 10 11 18 0 9 5 12 11 9 6 -4 8 -13 5 -20z m113 -44 c7
-5 11 -14 7 -20 -5 -7 -1 -9 11 -5 15 5 16 4 3 -5 -21 -15 -30 -14 -30 4 0 8
-4 15 -10 15 -5 0 -10 5 -10 10 0 12 10 13 29 1z m-39 -16 c15 -18 -17 -36
-48 -28 -17 4 -19 8 -10 22 13 21 43 24 58 6z m-87 -15 c3 -11 1 -18 -4 -14
-5 3 -9 12 -9 20 0 20 7 17 13 -6z m-103 -14 c0 -2 -7 -7 -16 -10 -8 -3 -12
-2 -9 4 6 10 25 14 25 6z m216 -25 c-5 -8 -13 -8 -29 1 -21 11 -21 11 -2 18
23 9 41 -3 31 -19z m-124 2 c-6 -2 -9 -10 -6 -15 4 -7 2 -8 -5 -4 -13 9 -5 26
12 25 9 0 8 -2 -1 -6z m158 -24 c0 -5 -5 -7 -11 -3 -7 4 -10 1 -7 -7 2 -7 18
-14 34 -15 50 -2 54 -3 47 -20 -5 -13 -7 -13 -14 -2 -7 10 -9 9 -9 -3 0 -9 -8
-20 -17 -23 -10 -4 -13 -10 -8 -14 13 -9 17 -32 6 -32 -10 0 -25 41 -29 78 -1
7 -7 10 -14 6 -7 -4 -8 -3 -4 4 4 7 1 12 -8 12 -19 0 -21 16 -3 23 21 9 37 7
37 -4z m-80 -34 c0 -18 -26 -20 -36 -3 -4 6 -3 8 4 4 6 -3 13 -2 17 4 9 14 15
12 15 -5z m60 -19 c0 -2 -7 -6 -15 -10 -8 -3 -15 -1 -15 4 0 6 7 10 15 10 8 0
15 -2 15 -4z m-85 -16 c3 -6 -1 -7 -9 -4 -18 7 -21 14 -7 14 6 0 13 -4 16 -10z
m173 -14 c-7 -8 -15 -12 -17 -11 -5 6 10 25 20 25 5 0 4 -6 -3 -14z m-88 -6
c0 -5 -4 -10 -10 -10 -5 0 -10 5 -10 10 0 6 5 10 10 10 6 0 10 -4 10 -10z
m-16 -40 c-6 -5 -24 21 -24 34 0 6 6 1 14 -10 8 -10 12 -21 10 -24z m-9 -20
c3 -5 1 -10 -4 -10 -6 0 -11 5 -11 10 0 6 2 10 4 10 3 0 8 -4 11 -10z m95 -2
c0 -4 -4 -8 -9 -8 -6 0 -12 4 -15 8 -3 5 1 9 9 9 8 0 15 -4 15 -9z m-40 -32
c-14 -14 -24 0 -16 21 6 15 8 15 16 3 6 -9 5 -19 0 -24z m7 -22 c-3 -3 -12 -4
-19 -1 -8 3 -5 6 6 6 11 1 17 -2 13 -5z m77 -3 c3 -5 -1 -11 -9 -14 -9 -4 -12
-1 -8 9 6 16 10 17 17 5z m31 -1 c3 -5 1 -10 -4 -10 -6 0 -11 5 -11 10 0 6 2
10 4 10 3 0 8 -4 11 -10z m62 -10 c-1 -11 -5 -20 -9 -20 -10 0 -10 4 -2 24 8
22 13 20 11 -4z m19 -52 c-9 -12 -16 -17 -16 -11 0 7 5 15 10 18 6 4 8 16 5
28 -5 19 -5 20 5 4 8 -13 7 -22 -4 -39z m64 3 c0 -12 5 -21 10 -21 6 0 10 -4
10 -10 0 -33 -39 15 -46 57 -4 23 -3 24 11 10 8 -9 15 -25 15 -36z m-91 12
c-1 -17 -18 -47 -18 -35 -1 7 -7 10 -13 7 -7 -4 -5 0 4 8 10 8 15 17 11 20 -3
4 -1 7 5 7 7 0 12 -3 11 -7z m-39 -47 c0 -3 -4 -8 -10 -11 -5 -3 -10 -1 -10 4
0 6 5 11 10 11 6 0 10 -2 10 -4z m179 -27 c-16 -10 -23 -4 -14 10 3 6 11 8 17
5 6 -4 5 -9 -3 -15z m-72 -42 c-3 -7 -6 -5 -6 6 -1 9 -6 17 -12 17 -5 0 -7 -6
-3 -12 5 -9 2 -9 -9 1 -9 7 -17 19 -17 25 0 6 5 4 10 -4 8 -12 10 -12 10 5 0
18 1 18 16 -3 8 -12 13 -28 11 -35z m37 36 c4 -11 1 -11 -14 -3 -24 13 -25 17
-5 17 8 0 16 -6 19 -14z m-10 -91 c-6 -8 -44 20 -39 28 3 5 14 2 24 -8 10 -9
17 -18 15 -20z m-79 8 c-3 -5 -12 -10 -18 -10 -7 0 -6 4 3 10 19 12 23 12 15
0z m155 0 c0 -4 -7 -13 -14 -20 -11 -9 -19 -9 -33 0 -16 9 -15 10 6 4 18 -5
23 -3 18 8 -3 9 1 15 9 15 8 0 14 -4 14 -7z m-124 -45 c1 -8 -2 -13 -7 -9 -5
3 -9 12 -9 21 0 19 13 9 16 -12z m167 1 c3 3 12 2 21 -3 10 -6 12 -13 6 -23
-8 -13 -10 -12 -10 2 0 13 -7 16 -28 14 -22 -3 -28 0 -29 16 -2 19 -1 19 16 4
10 -9 20 -13 24 -10z m-92 -43 c-12 -20 -14 -14 -5 12 4 9 9 14 11 11 3 -2 0
-13 -6 -23z m162 -24 c5 -19 4 -20 -12 -5 -20 19 -25 52 -5 36 6 -6 14 -20 17
-31z m-203 -4 c0 -5 -5 -3 -10 5 -5 8 -10 20 -10 25 0 6 5 3 10 -5 5 -8 10
-19 10 -25z m132 13 c-7 -7 -12 -8 -12 -2 0 14 12 26 19 19 2 -3 -1 -11 -7
-17z m162 -13 c-4 -8 -10 -15 -16 -15 -5 0 -7 -4 -3 -10 3 -5 12 -7 20 -3 8 3
15 1 15 -5 0 -14 -28 -23 -36 -11 -4 7 -10 6 -19 -1 -15 -12 -48 -2 -39 12 4
6 10 5 15 -3 7 -11 11 -10 23 6 8 11 12 24 9 29 -4 5 -1 6 5 2 7 -4 12 -2 12
3 0 6 4 11 10 11 5 0 7 -7 4 -15z m-98 -42 c-7 -7 -26 7 -26 19 0 6 6 6 15 -2
9 -7 13 -15 11 -17z m-45 -8 c0 -5 -5 -11 -13 -13 -10 -3 -10 -1 1 6 11 8 10
11 -5 15 -16 5 -16 6 -1 4 10 -1 18 -6 18 -12z m72 -34 c-10 -2 -21 -8 -24
-13 -4 -7 -9 -6 -13 1 -4 6 -2 11 3 11 6 0 11 7 11 15 0 13 3 13 20 3 19 -12
19 -13 3 -17z m54 14 c0 -8 -4 -15 -9 -15 -10 0 -11 14 -1 23 9 10 10 9 10 -8z
m43 1 c0 -7 -6 -18 -12 -24 -10 -8 -13 -4 -14 14 -1 15 4 24 12 24 8 0 14 -6
14 -14z m-50 -38 c0 -14 -18 -17 -28 -5 -8 10 -6 13 9 13 10 0 19 -4 19 -8z
m-95 -7 c3 -6 -3 -9 -14 -8 -11 0 -17 5 -15 9 7 11 22 10 29 -1z m150 -1 c-3
-5 -12 -10 -18 -10 -7 0 -6 4 3 10 19 12 23 12 15 0z m-25 -45 c0 -12 -19 -12
-23 0 -4 9 -1 12 9 8 7 -3 14 -7 14 -8z m66 -2 c-2 -9 -9 -19 -16 -21 -7 -3
-10 0 -6 7 4 6 1 11 -6 11 -9 0 -9 3 2 10 22 14 29 12 26 -7z m-13 -63 c3 -11
1 -20 -4 -20 -5 0 -9 9 -9 20 0 11 2 20 4 20 2 0 6 -9 9 -20z m-28 -30 c-3 -5
-12 -10 -18 -10 -7 0 -6 4 3 10 19 12 23 12 15 0z m45 -19 c0 -5 -10 -11 -22
-14 -21 -5 -21 -5 -6 7 10 7 14 17 10 21 -4 5 -1 5 6 1 6 -4 12 -11 12 -15z
m80 -18 c0 -7 5 -13 12 -13 9 0 9 -3 0 -12 -9 -9 -9 -15 1 -27 9 -11 9 -13 0
-8 -7 4 -18 -2 -27 -14 -8 -12 -19 -18 -26 -14 -8 5 -4 11 11 19 12 6 24 21
26 34 2 13 -1 21 -6 18 -5 -3 -11 2 -13 12 -3 11 0 19 8 19 8 0 14 -6 14 -14z
m-203 -15 c-3 -8 -6 -5 -6 6 -1 11 2 17 5 13 3 -3 4 -12 1 -19z m153 2 c0 -5
-2 -10 -4 -10 -3 0 -8 5 -11 10 -3 6 -1 10 4 10 6 0 11 -4 11 -10z m-50 -30
c0 -5 -5 -10 -11 -10 -5 0 -7 5 -4 10 3 6 8 10 11 10 2 0 4 -4 4 -10z m-47
-15 c-3 -9 -8 -14 -10 -11 -3 3 -2 9 2 15 9 16 15 13 8 -4z m202 -25 c3 -5 -1
-10 -9 -10 -9 0 -16 5 -16 10 0 6 4 10 9 10 6 0 13 -4 16 -10z m-35 -20 c10
-19 10 -20 -9 -8 -11 6 -17 16 -15 20 8 12 12 10 24 -12z m120 -20 c0 -5 -2
-10 -4 -10 -3 0 -8 5 -11 10 -3 6 -1 10 4 10 6 0 11 -4 11 -10z m-85 -10 c3
-5 1 -10 -4 -10 -6 0 -11 5 -11 10 0 6 2 10 4 10 3 0 8 -4 11 -10z m-25 -10
c0 -5 -2 -10 -4 -10 -3 0 -8 5 -11 10 -3 6 -1 10 4 10 6 0 11 -4 11 -10z m66
-32 c4 -6 3 -8 -4 -4 -6 3 -17 0 -25 -9 -13 -13 -16 -13 -21 1 -3 8 -2 13 2
10 4 -2 14 -1 22 5 19 11 17 11 26 -3z m-131 -8 c3 -5 -1 -10 -10 -10 -9 0
-13 5 -10 10 3 6 8 10 10 10 2 0 7 -4 10 -10z m65 -24 c0 -3 -4 -8 -10 -11 -5
-3 -10 -1 -10 4 0 6 5 11 10 11 6 0 10 -2 10 -4z m85 -88 c6 -4 2 -8 -7 -8
-10 0 -18 7 -18 17 0 9 3 12 8 7 4 -5 12 -12 17 -16z m152 -3 c0 -8 -4 -12 -9
-9 -4 3 -8 9 -8 15 0 5 4 9 8 9 5 0 9 -7 9 -15z m-117 -5 c-13 -8 -12 -10 3
-10 10 0 17 -7 17 -17 0 -15 -2 -16 -10 -3 -5 8 -10 11 -10 5 0 -5 -4 -3 -9 5
-11 16 -5 30 12 30 7 0 6 -4 -3 -10z m170 -14 c-6 -6 -16 -11 -23 -11 -7 -1
-11 -6 -10 -11 1 -6 -4 -11 -12 -11 -10 0 -11 4 -2 19 7 10 17 18 24 18 7 0
13 5 13 11 0 5 5 7 11 3 8 -4 7 -10 -1 -18z m-117 -1 c-3 -9 -8 -14 -10 -11
-3 3 -2 9 2 15 9 16 15 13 8 -4z m53 -7 c4 -7 3 -8 -4 -4 -7 4 -12 2 -12 -3 0
-6 -4 -11 -10 -11 -5 0 -7 7 -4 15 7 18 20 19 30 3z m74 -22 c0 -7 7 -20 17
-27 15 -13 16 -11 11 14 -4 20 -2 25 7 17 6 -5 15 -7 18 -3 4 3 9 -2 13 -11 3
-9 12 -16 20 -16 17 0 18 -17 2 -23 -12 -5 17 -11 35 -8 5 1 6 -3 2 -9 -3 -5
-14 -10 -23 -10 -9 0 -26 -13 -37 -29 -11 -17 -21 -28 -24 -26 -2 3 -10 0 -18
-6 -10 -9 -13 -8 -13 5 0 10 5 14 10 11 6 -3 10 -1 10 6 0 7 3 10 6 6 6 -6 34
16 34 27 0 3 -7 6 -15 6 -8 0 -15 5 -15 10 0 14 13 13 30 -2 12 -11 12 -10 2
3 -6 9 -9 18 -6 22 3 3 -6 4 -21 3 -14 -2 -32 2 -38 9 -7 6 -17 10 -24 8 -9
-3 -11 11 -4 35 3 9 21 -1 21 -12z m-320 -10 c0 -3 -4 -8 -10 -11 -5 -3 -10
-1 -10 4 0 6 5 11 10 11 6 0 10 -2 10 -4z m170 -11 c7 -9 8 -15 2 -15 -5 0
-12 7 -16 15 -3 8 -4 15 -2 15 2 0 9 -7 16 -15z m141 -29 c4 2 10 0 13 -5 11
-16 -11 -22 -24 -6 -15 18 -40 20 -40 3 0 -9 -3 -8 -10 2 -5 9 -5 19 1 27 8 9
15 8 31 -7 12 -11 25 -17 29 -14z m-75 -18 c3 -4 -1 -5 -10 -4 -8 1 -18 5 -22
8 -3 4 1 5 10 4 8 -1 18 -5 22 -8z m109 -18 c3 -5 1 -10 -4 -10 -6 0 -11 5
-11 10 0 6 2 10 4 10 3 0 8 -4 11 -10z m-25 -16 c0 -2 -12 -4 -26 -4 -14 0
-23 4 -20 9 6 8 46 4 46 -5z m-30 -44 c13 -25 13 -25 -8 -6 -12 10 -19 23 -16
28 7 11 7 11 24 -22z m110 -15 c7 -8 9 -15 4 -15 -5 0 -3 -4 5 -9 9 -6 10 -11
2 -15 -6 -4 -13 4 -17 19 -6 25 -24 35 -24 13 0 -6 -3 -9 -6 -5 -7 7 4 27 15
27 5 0 14 -7 21 -15z m-60 -40 c0 -5 -5 -3 -10 5 -5 8 -10 20 -10 25 0 6 5 3
10 -5 5 -8 10 -19 10 -25z m32 -7 c-7 -7 -12 -8 -12 -2 0 6 3 14 7 17 3 4 9 5
12 2 2 -3 -1 -11 -7 -17z m84 -17 c-4 -6 -12 -11 -18 -11 -7 0 -7 4 1 13 6 8
9 16 7 19 -1 3 1 2 7 -2 5 -5 6 -13 3 -19z m-40 -18 c-3 -3 4 -14 14 -26 19
-20 19 -20 -2 -39 -27 -23 -36 -23 -15 0 21 23 22 36 3 29 -11 -4 -13 -1 -9
10 4 10 2 14 -5 9 -6 -3 -13 -2 -17 4 -3 5 2 10 12 11 10 0 13 3 6 6 -7 2 -13
9 -13 15 0 6 6 5 15 -2 9 -7 13 -15 11 -17z m64 5 c0 -16 -3 -19 -11 -11 -6 6
-8 16 -5 22 11 17 16 13 16 -11z m-110 -8 c0 -5 -2 -10 -4 -10 -3 0 -8 5 -11
10 -3 6 -1 10 4 10 6 0 11 -4 11 -10z m100 -30 c0 -5 -2 -10 -4 -10 -3 0 -8 5
-11 10 -3 6 -1 10 4 10 6 0 11 -4 11 -10z m-130 -14 c0 -2 -8 -10 -17 -17 -16
-13 -17 -12 -4 4 13 16 21 21 21 13z m50 -12 c0 -2 -7 -4 -15 -4 -8 0 -15 4
-15 10 0 5 7 7 15 4 8 -4 15 -8 15 -10z m157 -6 c-3 -8 -6 -5 -6 6 -1 11 2 17
5 13 3 -3 4 -12 1 -19z m-46 -5 c13 -15 12 -15 -8 -4 -21 11 -23 10 -21 -14 2
-18 7 -24 18 -20 11 5 12 3 3 -6 -13 -13 -37 -3 -28 12 4 5 -1 9 -9 9 -19 0
-20 -12 -3 -29 10 -10 9 -11 -5 -6 -22 9 -22 19 -2 50 19 29 36 32 55 8z m-85
-74 c19 -22 19 -22 -3 -10 -13 6 -23 16 -23 21 0 15 5 12 26 -11z m94 5 c0
-11 -33 -38 -49 -40 -14 -2 -14 -1 1 10 10 7 14 17 10 21 -4 5 -1 5 6 1 6 -4
12 -2 12 3 0 6 5 11 10 11 6 0 10 -3 10 -6z m87 -43 c3 -13 11 -18 21 -14 15
4 15 3 2 -6 -11 -7 -21 -5 -40 12 -14 12 -27 23 -29 25 -2 1 6 2 18 2 14 0 25
-7 28 -19z m-158 -36 c0 -5 -4 -3 -9 5 -5 8 -9 22 -9 30 0 16 17 -16 18 -35z
m63 3 c-6 -6 -7 0 -4 19 5 21 7 23 10 9 2 -10 0 -22 -6 -28z m70 14 c-7 -2
-12 -10 -12 -18 0 -8 -8 -14 -17 -14 -11 0 -14 3 -7 8 6 4 13 15 17 25 4 11
12 15 19 11 9 -6 9 -9 0 -12z m-96 -27 c-1 -8 -6 -18 -12 -22 -5 -4 -6 -4 -2
1 4 5 3 15 -3 23 -9 10 -8 13 4 13 8 0 14 -7 13 -15z m44 -13 c0 -5 -7 -9 -15
-9 -8 0 -12 4 -9 9 3 4 9 8 15 8 5 0 9 -4 9 -8z m100 -12 c0 -5 -9 -10 -19
-10 -24 0 -37 -36 -21 -55 8 -9 8 -20 2 -31 -6 -11 -11 -13 -16 -5 -4 6 -2 11
4 11 18 0 6 23 -14 26 -24 3 -34 14 -13 14 16 0 21 10 15 27 -2 3 11 12 27 19
37 16 35 16 35 4z m-113 -32 c-3 -8 -6 -5 -6 6 -1 11 2 17 5 13 3 -3 4 -12 1
-19z m-33 -3 c-4 -8 -11 -12 -16 -9 -6 4 -5 10 3 15 19 12 19 11 13 -6z m207
-10 c5 4 9 1 9 -5 0 -6 4 -9 10 -5 5 3 7 12 3 20 -3 8 0 15 6 15 6 0 11 -5 11
-12 0 -9 3 -9 12 0 16 16 31 15 21 0 -4 -7 -8 -17 -8 -23 0 -5 -7 -10 -15 -11
-31 -1 -69 -16 -74 -30 -3 -8 -10 -14 -16 -14 -5 0 -2 9 7 20 10 11 24 20 33
20 13 0 13 2 0 9 -8 6 -19 7 -25 3 -13 -9 -55 -10 -55 -2 0 9 23 30 32 30 4 0
5 -7 2 -15 -4 -8 -1 -15 5 -15 6 0 10 3 10 8 -1 4 -1 14 0 22 1 12 4 11 12 -3
6 -9 14 -15 20 -12z m-61 -59 c0 -2 -7 -6 -15 -10 -8 -3 -15 -1 -15 4 0 6 7
10 15 10 8 0 15 -2 15 -4z m-96 -22 c3 -8 2 -12 -4 -9 -6 3 -10 10 -10 16 0
14 7 11 14 -7z m48 1 c3 0 9 -3 13 -7 4 -3 0 -5 -9 -4 -9 1 -22 8 -29 16 -10
10 -9 11 3 4 8 -5 18 -9 22 -9z m103 6 c3 -5 1 -12 -5 -16 -5 -3 -10 1 -10 9
0 18 6 21 15 7z m-205 -5 c0 -2 -8 -10 -17 -17 -16 -13 -17 -12 -4 4 13 16 21
21 21 13z m150 -51 c0 -5 -5 -3 -10 5 -5 8 -10 20 -10 25 0 6 5 3 10 -5 5 -8
10 -19 10 -25z m-104 -3 c-17 -16 -18 -16 -5 5 7 12 15 20 18 17 3 -2 -3 -12
-13 -22z m174 18 c0 -5 -5 -10 -11 -10 -5 0 -7 5 -4 10 3 6 8 10 11 10 2 0 4
-4 4 -10z m65 -30 c3 -6 -1 -7 -9 -4 -18 7 -21 14 -7 14 6 0 13 -4 16 -10z
m-23 -19 c7 11 9 11 6 1 -5 -17 -23 -17 -24 0 -1 9 1 8 4 -1 3 -12 5 -12 14 0z
m-105 -13 c2 -17 0 -19 -7 -8 -5 8 -6 18 -4 22 8 12 10 10 11 -14z m76 -19 c5
-3 2 -9 -5 -12 -9 -3 -14 3 -15 15 -1 11 1 16 5 12 4 -5 11 -12 15 -15z m77
-15 c0 -11 -5 -10 -18 4 -11 9 -17 21 -15 25 7 11 33 -13 33 -29z m-32 -25
c10 -1 7 -4 -8 -8 -31 -10 -31 -10 -23 19 6 19 8 21 11 8 2 -10 11 -18 20 -19z
m-125 -4 c-3 -9 -8 -14 -10 -11 -3 3 -2 9 2 15 9 16 15 13 8 -4z m120 -29 c4
-10 1 -13 -8 -9 -8 3 -12 9 -9 14 7 12 11 11 17 -5z m90 -7 c5 -3 1 -9 -8 -12
-11 -5 -14 -3 -9 5 5 8 2 9 -11 4 -15 -5 -16 -4 -5 9 7 9 16 12 19 8 3 -4 10
-11 14 -14z m-58 -29 c3 -5 1 -10 -4 -10 -6 0 -11 5 -11 10 0 6 2 10 4 10 3 0
8 -4 11 -10z m71 -18 c-17 -16 -18 -16 -5 5 7 12 15 20 18 17 3 -2 -3 -12 -13
-22z m54 -5 c0 -8 -7 -14 -15 -14 -25 0 -17 17 13 26 1 1 2 -5 2 -12z m-78
-69 c-6 -6 -8 -1 -7 14 3 32 7 36 12 14 3 -10 1 -22 -5 -28z m68 32 c0 -5 -2
-10 -4 -10 -3 0 -8 5 -11 10 -3 6 -1 10 4 10 6 0 11 -4 11 -10z m-132 -34 c-7
-8 -15 -12 -17 -11 -5 6 10 25 20 25 5 0 4 -6 -3 -14z m-43 -24 c-3 -3 -11 0
-18 7 -9 10 -8 11 6 5 10 -3 15 -9 12 -12z m85 14 c0 -3 -4 -8 -10 -11 -5 -3
-10 -1 -10 4 0 6 5 11 10 11 6 0 10 -2 10 -4z m-25 -45 c-6 -5 -25 10 -25 20
0 5 6 4 14 -3 8 -7 12 -15 11 -17z m135 -5 c0 -3 -4 -8 -10 -11 -5 -3 -10 -1
-10 4 0 6 5 11 10 11 6 0 10 -2 10 -4z m-40 -16 c0 -5 -5 -10 -11 -10 -5 0 -7
5 -4 10 3 6 8 10 11 10 2 0 4 -4 4 -10z m-50 -31 c0 -5 -4 -9 -10 -9 -5 0 -10
7 -10 16 0 8 5 12 10 9 6 -3 10 -10 10 -16z m40 -9 c0 -5 -2 -10 -4 -10 -3 0
-8 5 -11 10 -3 6 -1 10 4 10 6 0 11 -4 11 -10z m113 -6 c-3 -7 -11 -10 -19 -7
-20 8 -17 22 5 20 10 0 17 -7 14 -13z m-73 -19 c0 -8 -2 -15 -4 -15 -2 0 -6 7
-10 15 -3 8 -1 15 4 15 6 0 10 -7 10 -15z m55 -25 c4 -6 10 -8 14 -6 4 3 8 -1
8 -9 0 -13 -3 -13 -17 0 -9 8 -20 12 -23 8 -4 -3 -7 -1 -7 5 0 15 17 16 25 2z
m-8 -26 c-3 -3 -12 -4 -19 -1 -8 3 -5 6 6 6 11 1 17 -2 13 -5z m78 -14 c-3 -5
-14 -10 -23 -10 -15 0 -15 2 -2 10 20 13 33 13 25 0z m-89 -29 c0 -11 -4 -17
-8 -15 -4 3 -8 12 -8 20 0 8 4 14 8 14 4 0 8 -9 8 -19z m111 -3 c2 -18 0 -20
-7 -8 -9 14 -14 7 -11 -12 0 -5 -3 -8 -9 -8 -15 0 -12 11 7 32 20 22 18 22 20
-4z m-80 -3 c0 -8 -4 -12 -9 -9 -5 3 -6 10 -3 15 9 13 12 11 12 -6z m183 -31
c0 -8 -4 -12 -10 -9 -5 3 -10 13 -10 21 0 8 5 12 10 9 6 -3 10 -13 10 -21z
m-175 -34 c-3 -5 -12 -10 -18 -10 -7 0 -6 4 3 10 19 12 23 12 15 0z m35 0 c0
-5 -2 -10 -4 -10 -3 0 -8 5 -11 10 -3 6 -1 10 4 10 6 0 11 -4 11 -10z m-60
-44 c0 -10 -30 0 -34 11 -4 11 -1 11 14 3 11 -6 20 -12 20 -14z m27 -7 c-16
-22 -16 -22 -14 -1 0 11 5 18 9 16 4 -3 8 0 8 7 0 7 3 10 6 6 3 -3 -1 -16 -9
-28z m40 6 c0 -8 -4 -12 -9 -9 -4 3 -8 9 -8 15 0 5 4 9 8 9 5 0 9 -7 9 -15z
m127 9 c11 -4 13 -11 7 -22 -6 -11 -4 -21 5 -30 8 -7 14 -8 14 -2 0 5 5 10 11
10 8 0 7 -5 -1 -15 -9 -11 -16 -13 -23 -6 -7 7 -15 5 -24 -7 -13 -15 -13 -15
-3 5 8 18 7 24 -10 33 -11 6 -17 16 -14 25 7 16 14 18 38 9z m-54 -27 c0 -7
-5 -18 -12 -25 -9 -9 -9 -12 0 -12 7 0 12 -8 12 -17 0 -14 -3 -13 -16 5 -8 12
-21 20 -27 16 -7 -3 -1 4 13 16 14 12 19 18 11 14 -9 -5 -12 -3 -7 4 10 16 26
15 26 -1z m171 -4 c13 -16 12 -17 -3 -4 -17 13 -22 21 -14 21 2 0 10 -8 17
-17z m-247 -28 c-4 -9 0 -15 10 -15 9 0 16 -5 16 -10 0 -7 -6 -7 -20 0 -21 11
-25 22 -13 33 10 11 13 8 7 -8z m222 -27 c-1 -13 -11 -25 -22 -27 -15 -3 -16
-1 -6 11 9 12 9 15 -3 15 -23 0 -26 -26 -4 -48 11 -11 17 -24 14 -29 -4 -6 -1
-10 4 -10 6 0 11 -4 11 -10 0 -5 -6 -10 -14 -10 -8 0 -16 -5 -18 -11 -2 -6
-14 -1 -27 10 -13 12 -20 21 -15 21 6 0 15 -5 21 -11 6 -6 17 -8 24 -3 9 5 8
9 -7 15 -18 7 -18 8 0 8 18 1 18 2 -2 20 -35 30 -25 62 23 74 11 2 21 5 22 6
2 0 1 -9 -1 -21z m-121 -18 c3 -5 -1 -10 -10 -10 -9 0 -13 5 -10 10 3 6 8 10
10 10 2 0 7 -4 10 -10z m-50 -10 c-3 -5 -12 -10 -18 -10 -7 0 -6 4 3 10 19 12
23 12 15 0z m-98 -22 c-3 -8 -6 -5 -6 6 -1 11 2 17 5 13 3 -3 4 -12 1 -19z
m75 -22 c7 4 8 2 4 -4 -12 -20 -26 -13 -25 11 1 17 2 18 6 4 2 -9 9 -14 15
-11z m123 14 c3 -5 1 -10 -4 -10 -6 0 -11 5 -11 10 0 6 2 10 4 10 3 0 8 -4 11
-10z m-65 -26 c0 -8 -5 -12 -10 -9 -6 4 -8 11 -5 16 9 14 15 11 15 -7z m-88
-18 c10 5 10 4 1 -6 -9 -10 -15 -10 -26 -2 -8 7 -18 8 -22 4 -5 -4 -5 -1 -1 6
6 10 11 10 21 2 8 -7 20 -8 27 -4z m118 -6 c0 -5 -2 -10 -4 -10 -3 0 -8 5 -11
10 -3 6 -1 10 4 10 6 0 11 -4 11 -10z m20 -20 c0 -5 -5 -10 -11 -10 -5 0 -7 5
-4 10 3 6 8 10 11 10 2 0 4 -4 4 -10z m84 -51 c-3 -5 3 -10 13 -10 17 -1 17
-2 1 -6 -10 -2 -18 -8 -18 -13 0 -4 -6 -10 -13 -13 -7 -3 -13 3 -13 13 0 10 6
16 13 13 14 -6 8 20 -11 47 -6 8 -1 7 11 -4 13 -10 20 -23 17 -27z m106 23 c0
-5 -8 -18 -18 -30 -15 -17 -21 -19 -32 -9 -9 9 -11 9 -6 0 6 -11 -11 -30 -19
-21 -10 10 37 68 55 68 11 0 20 -4 20 -8z m-150 -46 c0 -3 -4 -8 -10 -11 -5
-3 -10 -1 -10 4 0 6 5 11 10 11 6 0 10 -2 10 -4z m-5 -47 c-8 -12 -35 -11 -35
2 0 5 5 7 10 4 6 -3 10 -1 10 5 0 6 5 8 10 5 6 -4 8 -11 5 -16z m65 -10 c0 -5
-4 -8 -9 -5 -5 3 -11 -1 -15 -9 -3 -8 -10 -15 -16 -15 -5 0 -2 9 7 20 19 22
33 26 33 9z m-130 -45 c0 -3 -7 -1 -15 6 -8 7 -15 17 -15 22 0 5 7 3 15 -6 8
-8 15 -18 15 -22z m66 21 c-3 -8 0 -15 6 -15 6 0 9 -2 7 -5 -3 -2 -15 -2 -27
2 -21 5 -21 6 -5 19 23 17 26 17 19 -1z m-161 -15 c3 -5 1 -10 -4 -10 -6 0
-11 5 -11 10 0 6 2 10 4 10 3 0 8 -4 11 -10z"/>
<path d="M422 2951 c-11 -7 -11 -9 1 -14 16 -6 27 0 27 15 0 10 -11 10 -28 -1z"/>
<path d="M525 2825 c0 -20 2 -22 14 -11 7 8 10 19 7 25 -12 18 -21 12 -21 -14z"/>
<path d="M2360 409 c0 -5 5 -7 10 -4 6 3 10 8 10 11 0 2 -4 4 -10 4 -5 0 -10
-5 -10 -11z"/>
<path d="M212 3433 c13 -20 24 -31 26 -23 3 7 0 15 -5 19 -5 3 -12 14 -16 24
-3 9 -11 17 -16 17 -6 0 -1 -16 11 -37z"/>
<path d="M173 3447 c3 -9 2 -19 -4 -22 -12 -8 -2 -25 14 -24 8 0 8 2 -1 6 -10
4 -10 7 2 17 13 10 13 13 -2 26 -14 13 -15 12 -9 -3z"/>
<path d="M286 3397 c3 -10 9 -15 12 -12 3 3 0 11 -7 18 -10 9 -11 8 -5 -6z"/>
<path d="M410 3360 c6 -11 13 -20 16 -20 2 0 0 9 -6 20 -6 11 -13 20 -16 20
-2 0 0 -9 6 -20z"/>
<path d="M310 3361 c0 -5 -8 -12 -17 -14 -14 -4 -12 -5 5 -6 13 -1 22 5 22 14
0 8 -2 15 -5 15 -3 0 -5 -4 -5 -9z"/>
<path d="M335 3351 c3 -6 -3 -14 -12 -20 -10 -6 -13 -11 -7 -11 12 0 34 20 34
32 0 4 -5 8 -11 8 -5 0 -8 -4 -4 -9z"/>
<path d="M286 3313 c-6 -14 -5 -15 5 -6 7 7 10 15 7 18 -3 3 -9 -2 -12 -12z"/>
<path d="M1255 3290 c-3 -6 1 -7 9 -4 18 7 21 14 7 14 -6 0 -13 -4 -16 -10z"/>
<path d="M264 3268 c-5 -7 -3 -8 6 -3 7 4 16 2 21 -6 4 -7 11 -10 14 -7 10 10
-4 28 -20 28 -8 0 -17 -5 -21 -12z"/>
<path d="M367 3250 c-3 -11 -1 -20 4 -20 5 0 9 9 9 20 0 11 -2 20 -4 20 -2 0
-6 -9 -9 -20z"/>
<path d="M240 3246 c0 -9 5 -16 10 -16 6 0 10 4 10 9 0 6 -4 13 -10 16 -5 3
-10 -1 -10 -9z"/>
<path d="M330 3250 c-8 -5 -10 -10 -5 -10 6 0 17 5 25 10 8 5 11 10 5 10 -5 0
-17 -5 -25 -10z"/>
<path d="M278 3233 c6 -2 10 -9 7 -13 -3 -5 -1 -11 5 -15 5 -3 10 3 10 14 0
14 -6 21 -17 20 -11 0 -13 -3 -5 -6z"/>
<path d="M410 3226 c0 -2 8 -10 18 -17 15 -13 16 -12 3 4 -13 16 -21 21 -21
13z"/>
<path d="M540 3216 c0 -2 7 -7 16 -10 8 -3 12 -2 9 4 -6 10 -25 14 -25 6z"/>
<path d="M556 3178 c3 -4 11 -5 19 -1 21 7 19 12 -4 10 -11 0 -18 -5 -15 -9z"/>
<path d="M463 3155 c0 -8 4 -12 9 -9 5 3 6 10 3 15 -9 13 -12 11 -12 -6z"/>
<path d="M482 3134 c-14 -16 -5 -18 17 -5 7 5 9 11 5 14 -5 3 -15 -1 -22 -9z"/>
<path d="M390 3120 c0 -5 5 -10 11 -10 5 0 7 5 4 10 -3 6 -8 10 -11 10 -2 0
-4 -4 -4 -10z"/>
<path d="M606 3087 c3 -10 9 -15 12 -12 3 3 0 11 -7 18 -10 9 -11 8 -5 -6z"/>
<path d="M455 3070 c3 -5 2 -10 -4 -10 -6 0 -8 -6 -5 -13 3 -8 12 -14 20 -14
9 0 11 4 5 10 -5 5 -7 16 -4 23 3 8 0 14 -7 14 -6 0 -8 -4 -5 -10z"/>
<path d="M488 3073 c6 -2 9 -10 6 -15 -4 -7 -2 -8 4 -4 11 7 17 -6 13 -27 -1
-5 3 -6 8 -2 19 11 -9 56 -34 54 -5 0 -4 -3 3 -6z"/>
<path d="M410 3049 c0 -5 5 -7 10 -4 6 3 10 8 10 11 0 2 -4 4 -10 4 -5 0 -10
-5 -10 -11z"/>
<path d="M551 3046 c-9 -11 -9 -16 1 -22 7 -4 10 -4 6 1 -4 4 -3 14 3 22 6 7
9 13 6 13 -2 0 -10 -6 -16 -14z"/>
<path d="M570 3025 c0 -8 4 -15 10 -15 5 0 7 7 4 15 -4 8 -8 15 -10 15 -2 0
-4 -7 -4 -15z"/>
<path d="M615 3000 c-3 -6 1 -7 9 -4 18 7 21 14 7 14 -6 0 -13 -4 -16 -10z"/>
<path d="M576 2983 c5 -5 12 -12 16 -18 4 -6 8 -2 8 8 0 9 -7 17 -17 17 -9 0
-12 -3 -7 -7z"/>
<path d="M1317 2976 c-4 -10 -1 -13 8 -9 8 3 12 9 9 14 -7 12 -11 11 -17 -5z"/>
<path d="M631 2961 c-8 -5 -9 -11 -3 -15 5 -3 12 1 16 9 6 17 6 18 -13 6z"/>
<path d="M690 2940 c0 -5 5 -10 10 -10 6 0 10 5 10 10 0 6 -4 10 -10 10 -5 0
-10 -4 -10 -10z"/>
<path d="M1300 2941 c0 -5 5 -13 10 -16 6 -3 10 -2 10 4 0 5 -4 13 -10 16 -5
3 -10 2 -10 -4z"/>
<path d="M660 2923 c-8 -13 -13 -14 -16 -5 -3 6 -10 12 -15 12 -6 0 -7 -4 -4
-10 3 -5 1 -10 -4 -10 -6 0 -11 -3 -11 -7 0 -5 11 -8 25 -8 15 0 28 8 34 23
12 26 7 29 -9 5z"/>
<path d="M720 2905 c0 -5 5 -17 10 -25 5 -8 10 -10 10 -5 0 6 -5 17 -10 25 -5
8 -10 11 -10 5z"/>
<path d="M673 2882 c0 -12 5 -22 9 -22 11 0 10 12 -2 30 -7 12 -9 10 -7 -8z"/>
<path d="M776 2885 c4 -8 10 -15 15 -15 4 0 6 7 3 15 -4 8 -10 15 -15 15 -4 0
-6 -7 -3 -15z"/>
<path d="M700 2880 c0 -5 5 -10 11 -10 5 0 7 5 4 10 -3 6 -8 10 -11 10 -2 0
-4 -4 -4 -10z"/>
<path d="M617 2849 c-7 -26 8 -33 27 -13 20 20 20 21 -3 27 -13 3 -21 -1 -24
-14z"/>
<path d="M755 2850 c-3 -6 1 -7 9 -4 18 7 21 14 7 14 -6 0 -13 -4 -16 -10z"/>
<path d="M730 2803 c0 -15 29 -49 30 -35 0 7 -7 20 -15 28 -8 9 -15 11 -15 7z"/>
<path d="M1280 2791 c0 -6 4 -13 10 -16 6 -3 7 1 4 9 -7 18 -14 21 -14 7z"/>
<path d="M679 2768 c-6 -12 -6 -18 1 -18 5 0 10 -7 10 -15 0 -13 3 -13 20 -3
11 7 20 17 20 22 0 4 -6 3 -14 -3 -11 -9 -15 -7 -19 8 -3 14 -1 18 9 14 8 -3
14 -1 14 4 0 17 -31 10 -41 -9z"/>
<path d="M826 2757 c3 -10 9 -15 12 -12 3 3 0 11 -7 18 -10 9 -11 8 -5 -6z"/>
<path d="M910 2754 c0 -8 5 -12 10 -9 6 4 8 11 5 16 -9 14 -15 11 -15 -7z"/>
<path d="M758 2753 c-21 -5 -24 -23 -5 -23 8 0 7 -4 -3 -10 -8 -5 -10 -10 -4
-10 5 0 15 5 22 12 8 8 10 5 6 -16 -3 -18 -1 -25 6 -21 5 3 10 -1 10 -9 0 -8
5 -18 12 -22 7 -4 8 -3 4 4 -5 8 1 12 16 12 16 0 19 -3 10 -9 -10 -6 -9 -12 5
-27 10 -11 15 -15 11 -9 -4 6 -5 21 -1 33 5 22 3 23 -37 26 -8 1 -15 8 -15 17
0 9 -6 23 -13 31 -6 8 -9 18 -5 21 3 4 4 6 2 6 -2 -1 -12 -3 -21 -6z"/>
<path d="M1007 2729 c7 -7 15 -10 18 -7 3 3 -2 9 -12 12 -14 6 -15 5 -6 -5z"/>
<path d="M1235 2711 c1 -23 23 -51 38 -51 6 0 2 7 -10 15 -14 10 -19 22 -16
35 3 11 1 20 -4 20 -5 0 -9 -9 -8 -19z"/>
<path d="M856 2705 c-3 -8 -1 -15 4 -15 6 0 10 7 10 15 0 8 -2 15 -4 15 -2 0
-6 -7 -10 -15z"/>
<path d="M890 2673 c0 -4 5 -15 10 -23 8 -13 10 -13 10 2 0 9 -4 20 -10 23 -5
3 -10 3 -10 -2z"/>
<path d="M1167 2656 c-4 -10 -1 -13 8 -9 8 3 12 9 9 14 -7 12 -11 11 -17 -5z"/>
<path d="M865 2649 c-4 -6 -5 -12 -2 -15 2 -3 7 2 10 11 7 17 1 20 -8 4z"/>
<path d="M978 2633 c7 -3 16 -2 19 1 4 3 -2 6 -13 5 -11 0 -14 -3 -6 -6z"/>
<path d="M920 2621 c0 -5 5 -13 10 -16 6 -3 10 -2 10 4 0 5 -4 13 -10 16 -5 3
-10 2 -10 -4z"/>
<path d="M1160 2621 c0 -6 4 -13 10 -16 6 -3 7 1 4 9 -7 18 -14 21 -14 7z"/>
<path d="M970 2616 c0 -11 30 -39 36 -34 2 3 -5 13 -16 23 -11 10 -20 15 -20
11z"/>
<path d="M970 2581 c0 -7 -5 -9 -12 -5 -7 5 -8 3 -3 -5 5 -9 10 -10 18 -2 6 6
8 14 4 18 -4 3 -7 1 -7 -6z"/>
<path d="M1257 2570 c3 -11 9 -20 13 -20 5 0 6 9 3 20 -3 11 -9 20 -13 20 -5
0 -6 -9 -3 -20z"/>
<path d="M1315 2580 c-3 -5 -1 -10 5 -10 6 0 8 -5 4 -12 -4 -7 -3 -8 4 -4 6 4
9 13 5 21 -6 18 -10 19 -18 5z"/>
<path d="M1076 2568 c3 -5 10 -6 15 -3 13 9 11 12 -6 12 -8 0 -12 -4 -9 -9z"/>
<path d="M1023 2555 c0 -8 4 -12 9 -9 4 3 8 9 8 15 0 5 -4 9 -8 9 -5 0 -9 -7
-9 -15z"/>
<path d="M2185 2560 c3 -5 8 -10 11 -10 2 0 4 5 4 10 0 6 -5 10 -11 10 -5 0
-7 -4 -4 -10z"/>
<path d="M1233 2549 c9 -6 14 -15 11 -21 -4 -7 -2 -8 5 -4 14 9 -3 36 -23 36
-6 0 -3 -5 7 -11z"/>
<path d="M2023 2532 c-1 -22 0 -24 9 -8 6 10 6 22 2 26 -5 5 -10 -3 -11 -18z"/>
<path d="M1042 2534 c-7 -8 -8 -14 -3 -14 10 0 25 19 20 25 -2 1 -10 -3 -17
-11z"/>
<path d="M1101 2544 c1 -21 16 -47 21 -38 4 5 0 18 -8 29 -8 10 -14 15 -13 9z"/>
<path d="M1347 2544 c-3 -3 -3 -12 -1 -19 3 -7 -2 -15 -10 -18 -13 -4 -12 -5
1 -3 11 1 18 10 19 24 1 24 1 25 -9 16z"/>
<path d="M1290 2530 c-12 -7 -10 -9 7 -7 12 0 19 5 17 9 -6 10 -6 10 -24 -2z"/>
<path d="M988 2513 c-10 -2 -18 -11 -18 -19 0 -8 -4 -12 -10 -9 -6 3 -7 -1 -4
-10 5 -13 11 -10 30 12 23 27 26 26 28 -6 2 -24 22 -23 22 1 0 21 -13 39 -26
37 -3 -1 -13 -3 -22 -6z"/>
<path d="M1083 2496 c5 -14 3 -17 -8 -13 -8 4 -17 1 -21 -5 -4 -6 -3 -8 4 -4
5 3 12 1 14 -4 2 -7 10 -6 22 3 17 12 17 14 0 28 -16 13 -17 12 -11 -5z"/>
<path d="M1166 2494 c-4 -9 -4 -19 -1 -22 3 -3 5 0 5 7 0 7 7 11 14 8 10 -4
13 -1 9 9 -7 19 -19 18 -27 -2z"/>
<path d="M1238 2485 c2 -14 6 -25 8 -25 2 0 4 11 4 25 0 14 -4 25 -9 25 -4 0
-6 -11 -3 -25z"/>
<path d="M1378 2493 c7 -3 16 -2 19 1 4 3 -2 6 -13 5 -11 0 -14 -3 -6 -6z"/>
<path d="M1675 2490 c-3 -5 -2 -10 4 -10 5 0 13 5 16 10 3 6 2 10 -4 10 -5 0
-13 -4 -16 -10z"/>
<path d="M1130 2470 c0 -5 5 -10 11 -10 5 0 7 5 4 10 -3 6 -8 10 -11 10 -2 0
-4 -4 -4 -10z"/>
<path d="M1631 2473 c-1 -18 19 -27 32 -13 9 10 8 12 -5 7 -9 -3 -19 -1 -22 6
-3 9 -5 9 -5 0z"/>
<path d="M1567 2456 c-4 -10 -1 -13 9 -9 15 6 19 23 5 23 -5 0 -11 -7 -14 -14z"/>
<path d="M1515 2450 c3 -5 8 -10 11 -10 2 0 4 5 4 10 0 6 -5 10 -11 10 -5 0
-7 -4 -4 -10z"/>
<path d="M1676 2443 c-6 -14 -5 -15 5 -6 7 7 10 15 7 18 -3 3 -9 -2 -12 -12z"/>
<path d="M1198 2443 c6 -2 12 -11 12 -18 0 -8 7 -11 20 -8 19 5 19 6 -6 19
-14 8 -29 14 -33 13 -3 0 0 -3 7 -6z"/>
<path d="M1385 2441 c-3 -5 -2 -12 3 -15 5 -3 9 1 9 9 0 17 -3 19 -12 6z"/>
<path d="M1135 2430 c28 -12 37 -12 30 0 -3 6 -16 10 -28 9 -21 0 -21 -1 -2
-9z"/>
<path d="M1507 2399 c4 -13 8 -18 11 -10 2 7 -1 18 -6 23 -8 8 -9 4 -5 -13z"/>
<path d="M1246 2394 c-10 -25 1 -29 14 -5 6 12 7 21 1 21 -5 0 -12 -7 -15 -16z"/>
<path d="M1337 2383 c-10 -9 -9 -23 1 -23 5 0 9 7 9 15 0 17 -1 18 -10 8z"/>
<path d="M1289 2363 c-13 -17 -13 -17 6 -3 11 8 22 16 24 17 2 2 0 3 -6 3 -6
0 -17 -8 -24 -17z"/>
<path d="M1330 2342 c0 -5 7 -15 15 -22 8 -7 15 -9 15 -6 0 4 -7 14 -15 22 -8
9 -15 11 -15 6z"/>
<path d="M1286 2321 c-4 -5 3 -7 14 -4 23 6 26 13 6 13 -8 0 -17 -4 -20 -9z"/>
<path d="M1430 2306 c0 -2 8 -10 18 -17 15 -13 16 -12 3 4 -13 16 -21 21 -21
13z"/>
<path d="M1293 2259 c-2 -23 3 -25 10 -4 4 8 3 16 -1 19 -4 3 -9 -4 -9 -15z"/>
<path d="M1341 2271 c-8 -5 -9 -11 -3 -15 5 -3 12 1 16 9 6 17 6 18 -13 6z"/>
<path d="M1200 2249 c0 -5 5 -7 10 -4 6 3 10 8 10 11 0 2 -4 4 -10 4 -5 0 -10
-5 -10 -11z"/>
<path d="M1399 2247 c6 -8 7 -18 3 -22 -4 -5 -1 -5 6 -1 10 6 10 11 1 22 -6 8
-14 14 -16 14 -3 0 0 -6 6 -13z"/>
<path d="M1310 2239 c0 -5 5 -7 10 -4 6 3 10 8 10 11 0 2 -4 4 -10 4 -5 0 -10
-5 -10 -11z"/>
<path d="M1483 2215 c0 -8 4 -15 9 -15 4 0 8 4 8 9 0 6 -4 12 -8 15 -5 3 -9
-1 -9 -9z"/>
<path d="M1372 2208 c-7 -7 -12 -9 -12 -4 0 4 -7 0 -16 -8 -8 -9 -19 -14 -23
-12 -16 10 -7 -25 11 -41 11 -9 18 -11 18 -5 0 20 -5 27 -14 24 -5 -2 -4 4 3
12 9 11 18 13 30 7 14 -8 17 -5 17 15 0 13 0 24 -1 24 -1 0 -6 -5 -13 -12z"/>
<path d="M1426 2203 c-6 -14 -5 -15 5 -6 7 7 10 15 7 18 -3 3 -9 -2 -12 -12z"/>
<path d="M1450 2210 c0 -5 5 -10 11 -10 5 0 7 5 4 10 -3 6 -8 10 -11 10 -2 0
-4 -4 -4 -10z"/>
<path d="M1472 2170 c0 -14 2 -19 5 -12 2 6 2 18 0 25 -3 6 -5 1 -5 -13z"/>
<path d="M1390 2140 c0 -5 5 -10 11 -10 5 0 7 5 4 10 -3 6 -8 10 -11 10 -2 0
-4 -4 -4 -10z"/>
<path d="M1364 2125 c-4 -8 -9 -13 -13 -11 -4 3 -7 -4 -7 -15 0 -23 12 -25 24
-3 8 14 10 13 15 -5 4 -16 1 -21 -13 -21 -22 0 -35 -16 -20 -25 6 -4 8 -11 5
-16 -4 -5 -2 -16 3 -25 7 -12 11 -13 16 -5 4 7 0 24 -9 38 -17 26 -17 26 9 19
29 -7 31 0 14 41 -6 15 -11 31 -10 36 3 13 -9 7 -14 -8z"/>
<path d="M1401 2113 c-1 -17 16 -25 25 -12 4 7 3 9 -4 5 -5 -3 -13 0 -15 6 -4
9 -6 10 -6 1z"/>
<path d="M1510 2110 c0 -5 -7 -10 -15 -10 -8 0 -15 -4 -15 -10 0 -16 15 -12
35 10 10 11 13 20 7 20 -7 0 -12 -4 -12 -10z"/>
<path d="M1443 2091 c0 -11 5 -18 9 -15 4 3 5 11 1 19 -7 21 -12 19 -10 -4z"/>
<path d="M1603 2093 c-17 -6 -17 -20 0 -20 8 0 14 6 14 14 0 7 -1 13 -1 12 -1
0 -7 -3 -13 -6z"/>
<path d="M1402 2044 c-11 -12 -11 -15 0 -19 17 -6 45 -1 55 10 4 4 -2 5 -15 2
-12 -3 -20 -1 -17 3 9 15 -10 18 -23 4z"/>
<path d="M1470 2043 c0 -18 31 -48 36 -36 3 7 12 9 20 6 8 -3 14 -1 14 4 0 17
-13 23 -26 13 -8 -8 -17 -6 -28 5 -9 9 -16 12 -16 8z"/>
<path d="M1570 2018 c0 -4 4 -8 9 -8 6 0 12 4 15 8 3 5 -1 9 -9 9 -8 0 -15 -4
-15 -9z"/>
<path d="M1630 2010 c0 -5 5 -10 11 -10 5 0 7 5 4 10 -3 6 -8 10 -11 10 -2 0
-4 -4 -4 -10z"/>
<path d="M1330 1999 c0 -5 5 -7 10 -4 6 3 10 8 10 11 0 2 -4 4 -10 4 -5 0 -10
-5 -10 -11z"/>
<path d="M1390 2006 c0 -2 11 -6 25 -8 13 -3 22 -1 19 3 -5 9 -44 13 -44 5z"/>
<path d="M1573 1986 c1 -11 9 -21 17 -23 10 -3 11 -2 4 4 -6 4 -14 15 -17 23
-5 11 -6 9 -4 -4z"/>
<path d="M1474 1969 c-4 -7 -3 -9 4 -5 5 3 13 0 15 -6 4 -9 6 -10 6 -1 1 17
-16 25 -25 12z"/>
<path d="M1516 1967 c3 -10 9 -15 12 -12 3 3 0 11 -7 18 -10 9 -11 8 -5 -6z"/>
<path d="M1560 1953 c0 -7 5 -15 10 -18 6 -3 10 -14 10 -23 0 -15 -2 -15 -11
-2 -10 13 -10 13 -6 0 3 -9 -1 -24 -9 -35 -8 -10 -14 -14 -14 -7 0 6 -7 9 -15
6 -12 -5 -13 -10 -4 -20 6 -7 8 -19 4 -26 -4 -7 3 -2 14 12 11 14 21 29 21 33
0 5 5 5 10 2 6 -4 10 -3 9 2 -1 4 3 21 10 37 6 16 9 31 6 34 -3 3 -5 -1 -5 -9
-1 -10 -5 -8 -15 5 -8 11 -15 15 -15 9z"/>
<path d="M1310 1924 c0 -8 5 -12 10 -9 6 3 10 10 10 16 0 5 -4 9 -10 9 -5 0
-10 -7 -10 -16z"/>
<path d="M1540 1930 c0 -6 -11 -8 -25 -4 -15 4 -25 2 -25 -5 0 -6 8 -11 18
-11 14 0 15 -2 2 -10 -13 -8 -12 -10 3 -10 9 0 17 5 17 11 0 5 4 8 8 5 4 -2 9
4 9 15 1 10 0 19 -3 19 -2 0 -4 -5 -4 -10z"/>
<path d="M1836 1917 c3 -10 9 -15 12 -12 3 3 0 11 -7 18 -10 9 -11 8 -5 -6z"/>
<path d="M1596 1882 c-3 -2 2 -18 10 -34 14 -27 14 -31 -3 -43 -15 -12 -16
-16 -4 -27 12 -11 13 -10 8 4 -3 9 0 19 8 22 10 4 13 14 9 35 -5 23 -2 30 12
33 14 3 12 5 -8 10 -15 3 -30 3 -32 0z"/>
<path d="M1693 1843 c-7 -3 -13 -9 -13 -14 0 -6 5 -7 10 -4 6 4 17 1 25 -5 12
-10 15 -9 15 3 0 17 -18 26 -37 20z"/>
<path d="M1649 1824 c6 -3 8 -11 5 -19 -5 -13 46 -69 55 -60 2 3 -8 14 -23 26
-14 11 -25 28 -24 36 2 9 -3 17 -10 19 -7 1 -8 0 -3 -2z"/>
<path d="M1744 1774 c-10 -8 -14 -13 -7 -10 6 4 13 1 15 -6 3 -7 7 -2 10 10 7
26 7 26 -18 6z"/>
<path d="M1780 1776 c0 -2 7 -7 16 -10 8 -3 12 -2 9 4 -6 10 -25 14 -25 6z"/>
<path d="M1675 1712 c1 -9 8 -16 14 -14 6 1 11 -2 11 -8 0 -5 4 -10 10 -10 14
0 2 24 -19 37 -16 10 -19 9 -16 -5z"/>
<path d="M1710 1726 c0 -2 8 -10 18 -17 15 -13 16 -12 3 4 -13 16 -21 21 -21
13z"/>
<path d="M1760 1709 c0 -5 5 -7 10 -4 6 3 10 8 10 11 0 2 -4 4 -10 4 -5 0 -10
-5 -10 -11z"/>
<path d="M1793 1703 c0 -9 4 -10 14 -2 7 6 13 12 13 14 0 1 -6 2 -13 2 -8 0
-14 -6 -14 -14z"/>
<path d="M1744 1669 c-3 -6 -14 -9 -25 -6 -15 4 -16 2 -6 -14 10 -16 13 -16
20 -4 4 9 12 13 16 11 4 -3 8 1 8 9 0 18 -3 19 -13 4z"/>
<path d="M1794 1618 c3 -15 26 -23 26 -8 0 6 -4 9 -9 6 -5 -4 -12 -1 -14 4 -3
6 -4 5 -3 -2z"/>
<path d="M1845 1620 c-3 -6 1 -7 9 -4 18 7 21 14 7 14 -6 0 -13 -4 -16 -10z"/>
<path d="M1890 1620 c-9 -6 -10 -10 -3 -10 6 0 15 5 18 10 8 12 4 12 -15 0z"/>
<path d="M1823 1579 c3 -9 0 -22 -6 -28 -8 -8 -8 -11 0 -11 16 0 23 25 11 41
-8 11 -9 11 -5 -2z"/>
<path d="M1997 1579 c7 -7 15 -10 18 -7 3 3 -2 9 -12 12 -14 6 -15 5 -6 -5z"/>
<path d="M1863 1540 c-13 -5 -23 -11 -23 -14 0 -7 40 6 46 15 6 10 6 10 -23
-1z"/>
<path d="M1787 1523 c-4 -3 -7 -11 -7 -17 0 -6 5 -5 12 2 16 16 38 -35 33 -82
-2 -25 1 -33 10 -29 9 3 12 -2 8 -15 -2 -11 0 -23 6 -26 6 -4 9 -1 5 7 -3 8 0
18 7 23 8 5 10 3 4 -7 -4 -8 8 4 28 25 20 22 35 44 34 50 -1 5 7 12 18 14 38
8 34 17 -7 17 -24 0 -43 -5 -45 -12 -3 -7 0 -13 6 -13 6 0 11 -7 11 -15 0 -26
-22 -13 -49 30 -11 17 -12 17 -7 2 4 -12 2 -17 -6 -14 -7 2 -12 12 -11 22 2
29 -33 56 -50 38z m133 -53 c0 -5 -2 -10 -4 -10 -3 0 -8 5 -11 10 -3 6 -1 10
4 10 6 0 11 -4 11 -10z m-46 -39 c11 -12 14 -21 7 -26 -14 -8 -31 2 -31 20 0
7 -6 16 -12 18 -9 4 -7 6 3 6 9 1 24 -8 33 -18z"/>
<path d="M1879 1493 c-13 -16 -12 -17 4 -4 9 7 17 15 17 17 0 8 -8 3 -21 -13z"/>
<path d="M1997 1493 c-13 -20 13 -51 37 -45 19 5 19 4 7 -11 -12 -15 -12 -17
3 -11 10 4 15 13 12 21 -3 8 -6 16 -6 18 0 2 -9 1 -19 -2 -15 -4 -20 1 -23 19
-2 15 -6 19 -11 11z"/>
<path d="M1947 1447 c-3 -7 3 -24 13 -37 l18 -23 7 21 c3 12 11 20 16 17 15
-10 10 2 -8 16 -10 8 -14 9 -10 2 9 -14 -9 -27 -23 -18 -8 5 -7 11 1 21 7 8 7
14 1 14 -5 0 -12 -6 -15 -13z"/>
<path d="M2075 1440 c-3 -5 -1 -10 4 -10 6 0 11 5 11 10 0 6 -2 10 -4 10 -3 0
-8 -4 -11 -10z"/>
<path d="M1920 1400 c0 -5 3 -9 8 -7 4 1 8 -2 10 -8 1 -5 -1 -10 -5 -10 -18
-1 -57 -29 -46 -32 7 -3 10 -10 7 -18 -3 -8 -12 -11 -20 -8 -25 9 -15 -12 11
-24 27 -12 44 0 27 20 -7 8 -6 20 3 37 13 22 14 23 15 5 0 -18 2 -17 14 5 8
16 9 29 3 38 -11 14 -27 16 -27 2z"/>
<path d="M1991 1381 c-7 -5 -11 -15 -9 -22 3 -8 -3 -18 -12 -24 -15 -9 -16
-12 -4 -23 11 -10 14 -10 14 1 0 8 10 22 23 31 14 10 16 14 5 10 -21 -7 -24 6
-6 24 14 14 9 15 -11 3z"/>
<path d="M2056 1375 c4 -8 8 -15 10 -15 2 0 4 7 4 15 0 8 -4 15 -10 15 -5 0
-7 -7 -4 -15z"/>
<path d="M2097 1377 c-3 -8 1 -14 9 -14 16 0 19 13 5 21 -5 3 -11 0 -14 -7z"/>
<path d="M1950 1350 c0 -5 5 -10 11 -10 5 0 7 5 4 10 -3 6 -8 10 -11 10 -2 0
-4 -4 -4 -10z"/>
<path d="M2025 1320 c-3 -11 -11 -20 -16 -20 -5 0 -9 -8 -9 -17 0 -15 2 -14
16 3 15 19 15 18 11 -3 -3 -12 -2 -24 2 -26 3 -2 0 -2 -6 -1 -7 2 -17 -4 -22
-13 -8 -15 -12 -15 -25 -4 -21 18 -28 11 -11 -12 12 -17 45 -14 45 4 0 4 16
11 35 15 19 3 32 10 30 15 -3 4 -12 6 -20 2 -11 -3 -13 -1 -9 10 3 8 0 18 -6
22 -6 4 -8 15 -5 26 4 10 4 19 1 19 -2 0 -8 -9 -11 -20z"/>
<path d="M2060 1320 c-13 -8 -12 -10 3 -10 9 0 17 5 17 10 0 12 -1 12 -20 0z"/>
<path d="M2140 1326 c0 -2 9 -6 20 -9 11 -3 18 -1 14 4 -5 9 -34 13 -34 5z"/>
<path d="M1933 1297 c3 -18 27 -40 35 -32 4 4 1 10 -6 12 -6 3 -10 8 -7 13 3
4 -2 10 -10 14 -8 3 -14 0 -12 -7z"/>
<path d="M2100 1290 c18 -12 30 -13 30 -2 0 4 -10 9 -22 9 -18 2 -20 0 -8 -7z"/>
<path d="M2157 1293 c-3 -4 7 -17 22 -27 l26 -20 -20 25 c-11 13 -21 25 -21
27 -1 2 -4 0 -7 -5z"/>
<path d="M2223 1273 c-15 -5 -17 -23 -4 -23 5 0 11 7 15 15 3 8 4 15 3 14 -1
0 -8 -3 -14 -6z"/>
<path d="M2130 1248 c0 -12 3 -18 7 -14 11 10 12 36 2 36 -5 0 -9 -10 -9 -22z"/>
<path d="M2286 1222 c-3 -5 1 -9 9 -9 8 0 12 4 9 9 -3 4 -7 8 -9 8 -2 0 -6 -4
-9 -8z"/>
<path d="M2027 1213 c-13 -12 -7 -23 11 -22 10 0 12 3 4 6 -6 2 -10 9 -6 14 6
10 0 12 -9 2z"/>
<path d="M2053 1178 c-14 -19 -14 -60 0 -55 7 2 12 16 11 31 0 19 4 26 15 23
9 -2 15 -9 13 -16 -1 -7 2 -10 7 -6 15 9 1 35 -19 35 -10 0 -22 -6 -27 -12z"/>
<path d="M2144 1157 c-3 -9 -12 -13 -20 -10 -8 3 -14 0 -14 -6 0 -6 -8 -8 -17
-5 -14 5 -15 4 -4 -4 7 -5 11 -15 7 -20 -4 -6 3 -16 15 -22 15 -8 19 -9 15 -1
-6 10 13 16 37 12 5 -1 6 3 2 9 -3 6 -11 8 -16 5 -13 -9 -11 19 3 33 6 6 9 15
5 18 -4 4 -9 0 -13 -9z m-14 -36 c0 -6 -4 -13 -10 -16 -5 -3 -10 1 -10 9 0 9
5 16 10 16 6 0 10 -4 10 -9z"/>
<path d="M2230 1160 c0 -5 5 -10 11 -10 5 0 7 5 4 10 -3 6 -8 10 -11 10 -2 0
-4 -4 -4 -10z"/>
<path d="M2337 1149 c7 -7 15 -10 18 -7 3 3 -2 9 -12 12 -14 6 -15 5 -6 -5z"/>
<path d="M2270 1121 c0 -10 29 -36 34 -30 1 2 -6 12 -16 22 -10 9 -18 13 -18
8z"/>
<path d="M1974 1103 c3 -7 -2 -13 -10 -13 -8 0 -12 -4 -9 -10 3 -5 16 -10 28
-10 14 0 18 -3 10 -8 -8 -5 -2 -13 17 -24 23 -13 28 -14 23 -2 -4 10 0 12 11
8 9 -3 16 -2 16 4 0 6 -6 12 -12 14 -7 3 -13 15 -13 29 0 20 -5 24 -33 24 -22
1 -31 -3 -28 -12z m56 -13 c0 -5 -6 -10 -14 -10 -8 0 -18 5 -21 10 -3 6 3 10
14 10 12 0 21 -4 21 -10z"/>
<path d="M2213 1100 c-3 -11 -10 -17 -17 -14 -6 3 -3 -1 6 -9 12 -9 14 -18 8
-25 -7 -9 -7 -9 2 -2 6 5 12 23 12 40 1 35 -4 39 -11 10z"/>
<path d="M2240 1090 c0 -5 5 -10 10 -10 6 0 10 5 10 10 0 6 -4 10 -10 10 -5 0
-10 -4 -10 -10z"/>
<path d="M2160 1080 c-9 -6 -10 -10 -3 -10 6 0 15 5 18 10 8 12 4 12 -15 0z"/>
<path d="M2365 1060 c3 -5 8 -10 11 -10 2 0 4 5 4 10 0 6 -5 10 -11 10 -5 0
-7 -4 -4 -10z"/>
<path d="M2253 1005 c7 -14 -2 -29 -28 -43 -11 -6 -14 -12 -7 -12 7 0 10 -4 7
-10 -3 -5 -3 -10 2 -10 4 0 16 14 26 32 14 24 15 34 6 42 -7 7 -10 7 -6 1z"/>
<path d="M2315 993 c-3 -10 0 -11 14 -4 10 6 21 7 25 4 3 -3 6 -1 6 5 0 15
-38 11 -45 -5z"/>
<path d="M2366 972 c-3 -5 1 -9 9 -9 8 0 12 4 9 9 -3 4 -7 8 -9 8 -2 0 -6 -4
-9 -8z"/>
<path d="M2280 948 c0 -6 3 -8 7 -5 3 4 12 2 20 -5 11 -8 12 -7 7 6 -7 18 -34
22 -34 4z"/>
<path d="M2085 930 c-3 -4 1 -13 9 -19 10 -9 16 -8 26 4 7 8 11 15 9 16 -31 6
-40 6 -44 -1z"/>
<path d="M2345 910 c-4 -6 -4 -14 -1 -17 3 -4 6 -1 6 6 0 7 5 9 11 6 6 -4 8
-14 4 -24 -5 -13 -4 -14 6 -3 11 10 10 15 -3 28 -11 12 -18 13 -23 4z"/>
<path d="M2407 872 c10 -17 21 -28 26 -25 5 3 4 9 -3 13 -7 5 -9 13 -5 21 5 8
5 11 0 7 -4 -4 -14 -3 -22 4 -9 7 -8 0 4 -20z"/>
<path d="M2221 840 c-13 -11 -17 -20 -10 -20 8 0 6 -5 -6 -13 -10 -8 -15 -19
-11 -25 4 -8 0 -12 -11 -12 -22 -1 -57 -26 -46 -33 5 -3 15 -2 23 4 22 13 30
11 23 -8 -5 -12 -2 -15 10 -10 11 4 14 2 11 -7 -3 -8 -1 -17 5 -21 15 -8 51 3
51 17 0 7 -4 7 -13 -1 -16 -13 -27 -5 -27 21 0 11 -4 17 -9 13 -14 -8 -4 35
12 54 8 9 12 22 9 30 -3 8 0 11 7 7 6 -4 11 -2 11 4 0 6 5 8 12 4 7 -4 8 -3 4
4 -10 16 -17 15 -45 -8z"/>
<path d="M2380 851 c0 -6 4 -13 10 -16 6 -3 7 1 4 9 -7 18 -14 21 -14 7z"/>
<path d="M2510 849 c0 -5 5 -7 10 -4 6 3 10 8 10 11 0 2 -4 4 -10 4 -5 0 -10
-5 -10 -11z"/>
<path d="M2260 811 c0 -27 15 -34 30 -16 8 9 8 15 2 15 -6 0 -13 -6 -16 -12
-3 -7 -3 -3 0 10 3 12 1 22 -5 22 -6 0 -11 -9 -11 -19z"/>
<path d="M2365 810 c-3 -6 1 -7 9 -4 18 7 21 14 7 14 -6 0 -13 -4 -16 -10z"/>
<path d="M2413 813 c9 -2 17 -9 17 -14 0 -5 5 -9 11 -9 8 0 8 5 -1 15 -7 8
-20 14 -29 14 -13 -1 -13 -2 2 -6z"/>
<path d="M2330 795 c7 -9 15 -13 17 -11 7 7 -7 26 -19 26 -6 0 -6 -6 2 -15z"/>
<path d="M2236 754 c-9 -25 -7 -41 4 -24 5 8 10 11 10 5 0 -11 20 16 20 28 0
14 -28 7 -34 -9z"/>
<path d="M2310 759 c0 -5 5 -7 10 -4 6 3 10 8 10 11 0 2 -4 4 -10 4 -5 0 -10
-5 -10 -11z"/>
<path d="M2439 742 c-7 -9 -9 -14 -5 -10 5 4 15 3 23 -3 10 -9 13 -8 13 4 0
24 -16 29 -31 9z"/>
<path d="M2616 738 c3 -5 10 -6 15 -3 13 9 11 12 -6 12 -8 0 -12 -4 -9 -9z"/>
<path d="M2382 725 c-11 -12 -10 -15 3 -15 8 0 15 7 15 15 0 18 -2 18 -18 0z"/>
<path d="M2170 699 c0 -5 5 -7 10 -4 6 3 10 8 10 11 0 2 -4 4 -10 4 -5 0 -10
-5 -10 -11z"/>
<path d="M2476 695 c4 -8 11 -15 16 -15 6 0 5 6 -2 15 -7 8 -14 15 -16 15 -2
0 -1 -7 2 -15z"/>
<path d="M2235 681 c-3 -5 -1 -12 4 -15 5 -3 11 1 15 9 6 16 -9 21 -19 6z"/>
<path d="M2385 680 c-4 -6 1 -7 12 -3 16 6 17 5 3 -13 -14 -18 -14 -18 2 -5
10 7 15 17 12 22 -7 12 -21 11 -29 -1z"/>
<path d="M2505 660 c-3 -5 -1 -10 4 -10 6 0 11 5 11 10 0 6 -2 10 -4 10 -3 0
-8 -4 -11 -10z"/>
<path d="M2570 656 c0 -2 7 -6 15 -10 8 -3 15 -1 15 4 0 6 -7 10 -15 10 -8 0
-15 -2 -15 -4z"/>
<path d="M2445 629 c-4 -6 -5 -12 -2 -15 2 -3 7 2 10 11 7 17 1 20 -8 4z"/>
<path d="M2498 633 c7 -3 16 -2 19 1 4 3 -2 6 -13 5 -11 0 -14 -3 -6 -6z"/>
<path d="M2535 620 c3 -5 8 -10 11 -10 2 0 4 5 4 10 0 6 -5 10 -11 10 -5 0 -7
-4 -4 -10z"/>
<path d="M2598 623 c7 -3 16 -2 19 1 4 3 -2 6 -13 5 -11 0 -14 -3 -6 -6z"/>
<path d="M2511 596 c-9 -11 -9 -16 1 -22 7 -4 10 -4 6 1 -4 4 -3 14 3 22 6 7
9 13 6 13 -2 0 -10 -6 -16 -14z"/>
<path d="M2365 570 c-3 -5 -1 -10 4 -10 6 0 11 5 11 10 0 6 -2 10 -4 10 -3 0
-8 -4 -11 -10z"/>
<path d="M2462 573 c-9 -3 -10 -9 -2 -18 7 -9 5 -19 -9 -37 l-20 -25 31 0 c26
0 28 2 15 12 -15 10 -15 14 -1 33 9 14 11 22 4 22 -6 0 -8 5 -5 10 7 11 6 11
-13 3z"/>
<path d="M2611 561 c-7 -5 -11 -15 -9 -22 3 -10 8 -7 17 9 13 24 12 26 -8 13z"/>
<path d="M2706 557 c3 -10 9 -15 12 -12 3 3 0 11 -7 18 -10 9 -11 8 -5 -6z"/>
<path d="M2506 547 c3 -8 11 -14 19 -14 11 0 12 4 4 14 -6 7 -15 13 -20 13 -5
0 -6 -6 -3 -13z"/>
<path d="M2550 548 c0 -4 4 -8 9 -8 6 0 12 4 15 8 3 5 -1 9 -9 9 -8 0 -15 -4
-15 -9z"/>
<path d="M2485 530 c-3 -5 -1 -10 4 -10 6 0 11 5 11 10 0 6 -2 10 -4 10 -3 0
-8 -4 -11 -10z"/>
<path d="M2549 528 c-5 -19 -8 -50 -4 -46 7 7 15 48 9 48 -2 0 -4 -1 -5 -2z"/>
<path d="M2565 487 c-4 -10 -5 -21 -1 -24 3 -4 6 -1 6 5 0 6 7 9 15 6 8 -4 15
-1 15 6 0 6 -4 9 -9 6 -5 -4 -11 0 -14 6 -3 9 -7 7 -12 -5z"/>
<path d="M2619 458 c8 -10 10 -18 5 -18 -5 0 -1 -5 9 -11 28 -16 27 -7 -1 21
-14 14 -20 17 -13 8z"/>
<path d="M2533 426 c0 -18 3 -24 9 -18 7 7 7 16 0 28 -8 14 -9 13 -9 -10z"/>
<path d="M2595 409 c-4 -6 -5 -12 -2 -15 2 -3 7 2 10 11 7 17 1 20 -8 4z"/>
<path d="M2550 396 c0 -2 7 -7 16 -10 8 -3 12 -2 9 4 -6 10 -25 14 -25 6z"/>
<path d="M2780 389 c0 -5 5 -7 10 -4 6 3 10 8 10 11 0 2 -4 4 -10 4 -5 0 -10
-5 -10 -11z"/>
<path d="M2660 380 c-13 -8 -13 -10 2 -10 9 0 20 5 23 10 8 13 -5 13 -25 0z"/>
<path d="M2701 344 c0 -11 3 -14 6 -6 3 7 2 16 -1 19 -3 4 -6 -2 -5 -13z"/>
<path d="M2505 340 c-4 -6 -1 -9 5 -8 20 5 20 -32 0 -52 -13 -13 -15 -20 -7
-23 8 -3 7 -10 -5 -24 -10 -11 -18 -24 -18 -29 0 -5 9 2 20 16 11 14 18 18 15
9 -10 -28 58 -11 82 20 9 11 12 12 13 3 0 -7 6 -12 13 -11 23 3 36 -1 52 -17
9 -9 18 -14 21 -11 7 6 -34 34 -56 39 -8 2 -18 7 -22 13 -4 5 -15 2 -26 -8
-17 -16 -20 -16 -25 -2 -7 17 -27 21 -27 4 0 -5 5 -7 10 -4 15 9 12 -11 -3
-23 -9 -8 -15 -4 -23 13 -13 26 -1 37 43 39 12 1 28 7 35 15 11 12 10 12 -2 5
-36 -20 -71 -1 -53 29 3 7 3 9 -2 5 -4 -4 -14 -3 -21 3 -8 7 -14 7 -19 -1z"/>
<path d="M2568 343 c7 -3 16 -2 19 1 4 3 -2 6 -13 5 -11 0 -14 -3 -6 -6z"/>
<path d="M2620 330 c0 -5 6 -10 13 -10 8 0 7 -4 -3 -10 -8 -5 -10 -10 -5 -10
6 0 3 -5 -5 -10 -10 -7 -11 -10 -2 -10 7 0 15 7 18 15 4 8 10 12 16 9 5 -3 4
3 -4 15 -14 22 -28 28 -28 11z"/>
<path d="M2564 318 c-3 -4 2 -8 10 -8 8 0 17 4 20 8 3 5 -2 9 -10 9 -8 0 -17
-4 -20 -9z"/>
<path d="M2495 310 c3 -5 11 -10 16 -10 6 0 7 5 4 10 -3 6 -11 10 -16 10 -6 0
-7 -4 -4 -10z"/>
<path d="M2703 305 c0 -8 4 -12 9 -9 5 3 6 10 3 15 -9 13 -12 11 -12 -6z"/>
<path d="M2736 262 c-3 -5 1 -9 9 -9 8 0 12 4 9 9 -3 4 -7 8 -9 8 -2 0 -6 -4
-9 -8z"/>
<path d="M2768 223 c7 -3 16 -2 19 1 4 3 -2 6 -13 5 -11 0 -14 -3 -6 -6z"/>
<path d="M2630 210 c0 -5 5 -10 12 -10 6 0 3 -10 -8 -22 l-19 -23 22 18 c12
11 19 25 16 33 -6 16 -23 19 -23 4z"/>
<path d="M2750 202 c0 -5 9 -20 20 -33 17 -21 19 -21 13 -4 -8 23 -33 51 -33
37z"/>
<path d="M2666 184 c-3 -8 -2 -12 4 -9 5 3 8 -4 7 -15 -1 -11 -7 -20 -14 -20
-18 0 -27 -20 -14 -33 9 -9 10 -7 5 7 -6 16 -4 18 9 13 15 -6 22 3 18 26 0 4
4 7 9 7 17 0 11 -39 -10 -60 -11 -11 -17 -20 -12 -20 4 0 7 -11 7 -25 0 -19
-4 -23 -17 -19 -21 6 -34 -14 -19 -29 9 -9 11 -8 6 5 -6 14 -2 17 24 13 18 -2
35 2 42 12 11 12 10 14 -6 11 -13 -2 -19 4 -20 20 -1 15 3 21 14 20 12 -2 16
6 16 32 0 24 4 34 13 32 8 -1 11 2 7 7 -3 6 -13 7 -21 4 -10 -4 -17 2 -21 16
-6 25 -18 27 -27 5z"/>
<path d="M2813 173 c0 -9 4 -10 14 -2 7 6 13 12 13 14 0 1 -6 2 -13 2 -8 0
-14 -6 -14 -14z"/>
<path d="M2753 85 c0 -8 4 -15 9 -15 5 0 6 -5 2 -12 -4 -7 -3 -8 4 -4 9 5 9
13 2 27 -13 23 -17 24 -17 4z"/>
<path d="M2597 35 c3 -8 9 -12 14 -9 12 7 11 11 -5 17 -10 4 -13 1 -9 -8z"/>
<path d="M2800 30 c-9 -6 -10 -10 -3 -10 6 0 15 5 18 10 8 12 4 12 -15 0z"/>
<path d="M2482 15 c-11 -13 -8 -15 24 -15 31 0 35 2 24 15 -16 19 -31 19 -48
0z"/>
<path d="M2557 23 c-11 -11 -8 -20 8 -20 8 0 16 6 19 14 5 13 -15 18 -27 6z"/>
<path d="M2734 19 c-5 -8 -3 -9 6 -4 7 4 16 2 22 -6 8 -12 9 -12 6 0 -6 20
-24 25 -34 10z"/>
</g>
</svg>
